<svg width="19" height="24" viewBox="0 0 19 24" fill="none" xmlns="http://www.w3.org/2000/svg">
<g clip-path="url(#clip0_9_1545)">
<path d="M9.482 23.1201C9.86121 23.1201 10.2249 22.9694 10.493 22.7013C10.7612 22.4332 10.9118 22.0696 10.9118 21.6904V6.01193L16.3311 11.8236C16.4574 11.9682 16.6114 12.0859 16.7841 12.1697C16.9567 12.2535 17.1445 12.3017 17.3362 12.3114C17.5279 12.321 17.7196 12.292 17.8998 12.2261C18.0801 12.1601 18.2452 12.0585 18.3853 11.9274C18.5255 11.7963 18.6378 11.6383 18.7156 11.4628C18.7933 11.2873 18.835 11.098 18.838 10.9061C18.8411 10.7142 18.8054 10.5237 18.7332 10.3459C18.6611 10.168 18.5538 10.0066 18.4179 9.87105L10.5289 1.40496C10.3951 1.26162 10.2332 1.14731 10.0534 1.06916C9.87357 0.991012 9.67958 0.950684 9.4835 0.950684C9.28741 0.950684 9.09342 0.991012 8.91358 1.06916C8.73374 1.14731 8.5719 1.26162 8.43812 1.40496L0.541101 9.87105C0.282282 10.1495 0.144674 10.5193 0.15855 10.8991C0.172426 11.279 0.336649 11.6378 0.615091 11.8966C0.893536 12.1554 1.26339 12.293 1.64329 12.2791C2.02319 12.2652 2.38202 12.101 2.64084 11.8226L8.05217 6.01193V21.6914C8.05244 22.0704 8.2032 22.4338 8.47131 22.7017C8.73943 22.9696 9.10296 23.1201 9.482 23.1201Z" fill="#E76F51"/>
</g>
<defs>
<clipPath id="clip0_9_1545">
<rect width="18.68" height="22.17" fill="white" transform="translate(0.159973 0.949951)"/>
</clipPath>
</defs>
</svg>
