<svg width="26" height="19" viewBox="0 0 26 19" fill="none" xmlns="http://www.w3.org/2000/svg">
<g clip-path="url(#clip0_9_1973)">
<path fill-rule="evenodd" clip-rule="evenodd" d="M10.717 16.5457L7.89677 18.4231C7.81624 18.468 7.72571 18.4918 7.63354 18.4925C7.54136 18.4932 7.4505 18.4706 7.36932 18.4269C7.28815 18.3833 7.21927 18.3199 7.16903 18.2426C7.11879 18.1653 7.08881 18.0766 7.08185 17.9847V13.8503L18.6126 5.20193L4.82684 12.5311L1.25159 10.0903C1.13967 10.0107 1.05187 9.90176 0.997854 9.77546C0.943836 9.64917 0.925687 9.51043 0.945402 9.37449C0.965117 9.23856 1.02193 9.11069 1.1096 9.00495C1.19727 8.8992 1.3124 8.81968 1.44233 8.77512L24.6296 0.377427C24.9432 0.251597 25.1938 0.628089 25.0061 0.941667L14.54 18.2374C14.4224 18.4021 14.2449 18.514 14.0456 18.5492C13.8463 18.5843 13.6412 18.5397 13.4744 18.4251L10.717 16.5457Z" fill="white"/>
</g>
<defs>
<clipPath id="clip0_9_1973">
<rect width="24.13" height="18.23" fill="white" transform="translate(0.940002 0.34021)"/>
</clipPath>
</defs>
</svg>
