<svg width="81" height="80" viewBox="0 0 81 80" fill="none" xmlns="http://www.w3.org/2000/svg">
<g clip-path="url(#clip0_9_1215)">
<g clip-path="url(#clip1_9_1215)">
<g clip-path="url(#clip2_9_1215)">
<path d="M40.8427 71.6558C58.1564 71.6558 72.192 57.6202 72.192 40.3064C72.192 22.9926 58.1564 8.95703 40.8427 8.95703C23.5289 8.95703 9.49329 22.9926 9.49329 40.3064C9.49329 57.6202 23.5289 71.6558 40.8427 71.6558Z" fill="#E76F51"/>
<path d="M20.1511 24.0449C14.9505 24.0506 9.96444 26.1191 6.287 29.7965C2.60957 33.474 0.54109 38.46 0.5354 43.6607C0.5354 50.3784 3.72945 57.5959 10.0298 65.1198C10.9658 66.2376 11.8991 67.2694 12.7939 68.2189C8.72565 69.3295 6.28398 71.3242 6.28398 73.6522C6.28398 77.7724 13.428 79.9982 20.1494 79.9982C26.8707 79.9982 34.0147 77.7742 34.0147 73.6522C34.0147 71.3233 31.5731 69.3304 27.5084 68.2198C29.3054 66.3305 30.985 64.3329 32.5377 62.2383C32.6319 62.1145 32.7006 61.9731 32.7396 61.8225C32.7787 61.6719 32.7874 61.515 32.7653 61.361C32.7431 61.207 32.6906 61.0589 32.6107 60.9254C32.5308 60.7919 32.4252 60.6756 32.2999 60.5833C32.1746 60.491 32.0323 60.4245 31.8811 60.3878C31.7299 60.351 31.5729 60.3447 31.4192 60.3692C31.2656 60.3937 31.1183 60.4485 30.986 60.5304C30.8537 60.6123 30.7391 60.7197 30.6487 60.8464C28.8034 63.3255 26.7781 65.6654 24.5893 67.8472C24.3697 67.9585 24.1908 68.1362 24.0779 68.355C22.3841 70.0192 20.9591 71.2544 20.1502 71.9288C19.3504 71.2607 17.9468 70.0425 16.2746 68.3998C16.1562 68.1402 15.9473 67.9326 15.687 67.8158C10.3737 62.4712 2.87854 53.2375 2.87854 43.6607C2.91137 39.1023 4.7452 34.7418 7.98012 31.5301C11.215 28.3184 15.5886 26.516 20.1471 26.516C24.7056 26.516 29.0792 28.3184 32.3141 31.5301C35.549 34.7418 37.3829 39.1023 37.4157 43.6607C37.4157 47.8194 35.9987 52.3095 33.2059 57.0065C33.1224 57.1391 33.0663 57.2869 33.0409 57.4415C33.0155 57.596 33.0212 57.7541 33.0579 57.9063C33.0945 58.0586 33.1612 58.202 33.2541 58.3281C33.347 58.4541 33.4642 58.5603 33.5988 58.6404C33.7334 58.7205 33.8827 58.7728 34.0378 58.7943C34.193 58.8157 34.3508 58.8059 34.5021 58.7654C34.6534 58.7249 34.795 58.6546 34.9187 58.5585C35.0424 58.4624 35.1455 58.3425 35.2221 58.2059C38.2353 53.1398 39.7633 48.2457 39.7633 43.6589C39.7571 38.4591 37.6889 33.4741 34.0123 29.7972C30.3357 26.1202 25.3509 24.0516 20.1511 24.0449ZM19.4346 74.3678C19.6399 74.5262 19.8919 74.612 20.1511 74.612C20.4104 74.612 20.6624 74.5262 20.8677 74.3678C22.5135 73.0539 24.0886 71.6538 25.5862 70.1733C29.5425 70.9794 31.6707 72.5334 31.6707 73.6522C31.6707 74.4869 30.526 75.4722 28.6835 76.2237C25.953 77.2264 23.0594 77.7109 20.1511 77.6523C13.119 77.6523 8.6316 75.2832 8.6316 73.6531C8.6316 72.5334 10.7598 70.9803 14.7223 70.1733C16.2173 71.6542 17.7897 73.055 19.4328 74.3696L19.4346 74.3678Z" fill="#3B3735"/>
<path d="M20.1511 35.1338C18.3103 35.1279 16.5178 35.7225 15.0456 36.8276C14.9221 36.9198 14.818 37.0355 14.7392 37.1679C14.6604 37.3004 14.6084 37.4471 14.5863 37.5996C14.5641 37.7521 14.5723 37.9075 14.6102 38.0569C14.6482 38.2063 14.7151 38.3468 14.8074 38.4703C14.8996 38.5938 15.0152 38.6979 15.1477 38.7768C15.2801 38.8556 15.4268 38.9075 15.5794 38.9296C15.7319 38.9518 15.8873 38.9436 16.0367 38.9057C16.1861 38.8678 16.3266 38.8008 16.4501 38.7086C17.6229 37.8357 19.0677 37.4079 20.5266 37.5016C21.9856 37.5953 23.3638 38.2044 24.4153 39.2201C25.4668 40.2358 26.1232 41.5921 26.2674 43.047C26.4115 44.5018 26.034 45.9605 25.2023 47.1628C24.3706 48.3652 23.1387 49.2328 21.7265 49.611C20.3143 49.9892 18.8136 49.8533 17.4924 49.2276C16.1711 48.6019 15.1151 47.527 14.5129 46.1948C13.9107 44.8627 13.8014 43.3598 14.2046 41.9546C14.2496 41.8057 14.2645 41.6495 14.2486 41.4948C14.2327 41.3402 14.1862 41.1902 14.1118 41.0537C14.0374 40.9171 13.9367 40.7968 13.8154 40.6995C13.6941 40.6023 13.5547 40.5301 13.4052 40.4872C13.2558 40.4443 13.0993 40.4315 12.9449 40.4496C12.7905 40.4677 12.6412 40.5162 12.5057 40.5925C12.3703 40.6688 12.2513 40.7712 12.1558 40.8939C12.0602 41.0165 11.99 41.157 11.9492 41.307C11.4548 43.0261 11.5134 44.8572 12.1167 46.5412C12.72 48.2252 13.8375 49.677 15.3111 50.6911C16.7847 51.7052 18.5398 52.2303 20.3283 52.1922C22.1167 52.1541 23.8479 51.5547 25.277 50.4788C26.7061 49.4029 27.7607 47.9049 28.2918 46.1967C28.8229 44.4885 28.8035 42.6566 28.2363 40.9601C27.6692 39.2636 26.583 37.7883 25.1314 36.7429C23.6798 35.6975 21.9363 35.1349 20.1475 35.1347L20.1511 35.1338Z" fill="#3B3735"/>
<path d="M71.2747 34.0814C71.8713 33.441 72.4866 32.7513 73.1029 32.0141C77.9871 26.1804 80.4637 20.5734 80.4637 15.3461C80.4639 11.8043 79.2392 8.37146 76.9972 5.62958C74.7553 2.8877 71.6341 1.00555 68.1628 0.302252C64.6916 -0.401045 61.0839 0.117798 57.9516 1.77081C54.8192 3.42382 52.3549 6.10926 50.9765 9.37181C50.8642 9.65662 50.8676 9.97405 50.9861 10.2564C51.1046 10.5387 51.3287 10.7635 51.6106 10.8828C51.8926 11.0022 52.21 11.0066 52.4951 10.8951C52.7803 10.7837 53.0106 10.5652 53.1369 10.2863C54.3047 7.52278 56.3923 5.24812 59.0457 3.84794C61.6991 2.44776 64.755 2.00821 67.6955 2.6038C70.6359 3.1994 73.28 4.7935 75.1793 7.11585C77.0787 9.43821 78.1166 12.3459 78.117 15.3461C78.117 25.0402 67.9392 34.3277 65.1159 36.7174C64.4934 36.1916 63.5144 35.3309 62.3662 34.2095C62.2526 33.9851 62.0698 33.8033 61.8449 33.6909C57.7945 29.6127 52.1167 22.6021 52.1167 15.3506C52.1082 15.0451 51.981 14.755 51.7619 14.5419C51.5429 14.3288 51.2494 14.2096 50.9438 14.2096C50.6382 14.2096 50.3447 14.3288 50.1256 14.5419C49.9066 14.755 49.7793 15.0451 49.7709 15.3506C49.7709 20.577 52.2475 26.1885 57.1317 32.0186C57.7479 32.7549 58.3624 33.4445 58.9589 34.085C55.9351 34.9932 54.1893 36.5401 54.1893 38.4022C54.1893 39.9733 55.463 41.358 57.7775 42.2994C62.5291 43.9675 67.7072 43.9675 72.4588 42.2994C74.7724 41.3562 76.0461 39.9706 76.0461 38.4013C76.0443 36.5392 74.2977 34.9914 71.2747 34.0814ZM65.1168 41.2022C59.5635 41.2022 56.5343 39.3508 56.5343 38.3995C56.5343 37.7797 57.9119 36.6458 60.8551 36.0206C61.9815 37.1292 63.1645 38.1789 64.3994 39.1654C64.6047 39.3237 64.8567 39.4096 65.1159 39.4096C65.3752 39.4096 65.6272 39.3237 65.8325 39.1654C67.0674 38.179 68.2504 37.1293 69.3768 36.0206C70.5133 36.2345 71.6079 36.6304 72.6183 37.193C73.2936 37.6041 73.6931 38.0556 73.6931 38.3995C73.6985 39.349 70.6693 41.2022 65.1168 41.2022Z" fill="#3B3735"/>
<path d="M65.1169 8.521C63.7668 8.521 62.447 8.92134 61.3245 9.6714C60.202 10.4215 59.327 11.4876 58.8104 12.7349C58.2937 13.9822 58.1585 15.3547 58.4219 16.6788C58.6853 18.0029 59.3354 19.2192 60.2901 20.1739C61.2447 21.1285 62.461 21.7786 63.7852 22.042C65.1093 22.3054 66.4818 22.1702 67.7291 21.6536C68.9764 21.1369 70.0425 20.262 70.7926 19.1395C71.5426 18.0169 71.943 16.6972 71.943 15.3471C71.9409 13.5374 71.221 11.8023 69.9413 10.5227C68.6616 9.24299 66.9266 8.52313 65.1169 8.521ZM65.1169 19.8274C64.2311 19.8274 63.3652 19.5647 62.6288 19.0726C61.8923 18.5805 61.3183 17.8811 60.9793 17.0627C60.6403 16.2444 60.5517 15.3439 60.7245 14.4752C60.8973 13.6064 61.3238 12.8084 61.9501 12.1821C62.5764 11.5558 63.3744 11.1293 64.2432 10.9565C65.1119 10.7837 66.0124 10.8723 66.8307 11.2113C67.649 11.5503 68.3485 12.1243 68.8406 12.8608C69.3327 13.5973 69.5954 14.4631 69.5954 15.3489C69.5937 16.5361 69.1213 17.6743 68.2818 18.5138C67.4423 19.3533 66.3041 19.8257 65.1169 19.8274Z" fill="#3B3735"/>
<path d="M49.899 37.2251H49.3616C48.9722 37.2251 48.5832 37.2509 48.1972 37.3021C47.8884 37.3432 47.6086 37.5053 47.4193 37.7527C47.2299 38.0002 47.1467 38.3127 47.1878 38.6215C47.2289 38.9303 47.3909 39.2102 47.6384 39.3995C47.8858 39.5888 48.1983 39.672 48.5071 39.6309C48.791 39.5934 49.0771 39.5745 49.3634 39.5745H49.9008C50.212 39.5745 50.5105 39.4509 50.7305 39.2308C50.9506 39.0108 51.0742 38.7123 51.0742 38.4011C51.0742 38.09 50.9506 37.7915 50.7305 37.5715C50.5105 37.3514 50.212 37.2278 49.9008 37.2278L49.899 37.2251Z" fill="#3B3735"/>
<path d="M46.0215 72.4253H46.0162L44.4666 72.4325C44.1612 72.4416 43.8713 72.5695 43.6587 72.789C43.4461 73.0086 43.3276 73.3024 43.3283 73.608C43.329 73.9136 43.4489 74.2069 43.6625 74.4254C43.8761 74.644 44.1665 74.7706 44.472 74.7783H44.4774L46.0269 74.7711C46.3324 74.762 46.6223 74.6341 46.8349 74.4145C47.0474 74.195 47.166 73.9012 47.1653 73.5956C47.1646 73.29 47.0447 72.9967 46.8311 72.7782C46.6175 72.5596 46.327 72.433 46.0215 72.4253Z" fill="#3B3735"/>
<path d="M51.2918 52.4209H49.7423C49.5855 52.4165 49.4295 52.4437 49.2834 52.5006C49.1373 52.5576 49.0041 52.6434 48.8917 52.7527C48.7793 52.862 48.69 52.9928 48.6289 53.1373C48.5679 53.2817 48.5365 53.4369 48.5365 53.5938C48.5365 53.7506 48.5679 53.9058 48.6289 54.0503C48.69 54.1947 48.7793 54.3255 48.8917 54.4348C49.0041 54.5442 49.1373 54.6299 49.2834 54.6869C49.4295 54.7439 49.5855 54.771 49.7423 54.7667H51.2918C51.4486 54.771 51.6046 54.7439 51.7507 54.6869C51.8968 54.6299 52.03 54.5442 52.1424 54.4348C52.2548 54.3255 52.3442 54.1947 52.4052 54.0503C52.4662 53.9058 52.4976 53.7506 52.4976 53.5938C52.4976 53.4369 52.4662 53.2817 52.4052 53.1373C52.3442 52.9928 52.2548 52.862 52.1424 52.7527C52.03 52.6434 51.8968 52.5576 51.7507 52.5006C51.6046 52.4437 51.4486 52.4165 51.2918 52.4209Z" fill="#3B3735"/>
<path d="M45.0748 39.6152C44.8638 39.3864 44.5706 39.2509 44.2597 39.2383C43.9488 39.2257 43.6456 39.3371 43.4168 39.548C42.9786 39.9524 42.5824 40.4001 42.2345 40.8844C42.1422 41.0094 42.0756 41.1515 42.0387 41.3025C42.0017 41.4534 41.9951 41.6102 42.0192 41.7637C42.0434 41.9173 42.0978 42.0645 42.1793 42.1968C42.2608 42.3291 42.3678 42.4439 42.494 42.5346C42.6202 42.6252 42.7632 42.6899 42.9146 42.7248C43.0661 42.7597 43.2229 42.7642 43.3761 42.7381C43.5293 42.7119 43.6758 42.6555 43.807 42.5722C43.9382 42.489 44.0516 42.3805 44.1406 42.253C44.3958 41.8977 44.6862 41.5691 45.0076 41.2722C45.2361 41.0613 45.3715 40.7683 45.3841 40.4576C45.3967 40.1469 45.2854 39.8439 45.0748 39.6152Z" fill="#3B3735"/>
<path d="M52.2189 72.3931H52.2135L50.664 72.4002C50.3585 72.4093 50.0687 72.5373 49.8561 72.7568C49.6435 72.9763 49.5249 73.2702 49.5256 73.5758C49.5263 73.8814 49.6462 74.1746 49.8598 74.3932C50.0734 74.6117 50.3639 74.7384 50.6694 74.7461H50.6748L52.2243 74.7389C52.5298 74.7298 52.8196 74.6019 53.0322 74.3823C53.2448 74.1628 53.3634 73.869 53.3627 73.5634C53.362 73.2578 53.2421 72.9645 53.0285 72.746C52.8149 72.5274 52.5244 72.4008 52.2189 72.3931Z" fill="#3B3735"/>
<path d="M39.8233 72.4492H39.8179L38.2683 72.4564C37.9571 72.4571 37.659 72.5814 37.4394 72.802C37.2199 73.0225 37.0969 73.3213 37.0977 73.6324C37.0984 73.9436 37.2227 74.2418 37.4432 74.4613C37.6638 74.6809 37.9625 74.8038 38.2737 74.8031H38.2791L39.8286 74.796C40.1341 74.7869 40.424 74.6589 40.6366 74.4394C40.8492 74.2199 40.9677 73.926 40.967 73.6204C40.9663 73.3148 40.8464 73.0216 40.6328 72.803C40.4192 72.5845 40.1288 72.4578 39.8233 72.4501V72.4492Z" fill="#3B3735"/>
<path d="M45.9418 51.4335C45.5721 51.2002 45.227 50.9302 44.9117 50.6274C44.8013 50.5175 44.6701 50.4307 44.5258 50.372C44.3815 50.3134 44.227 50.284 44.0712 50.2857C43.9155 50.2874 43.7616 50.3201 43.6186 50.3819C43.4756 50.4437 43.3463 50.5333 43.2384 50.6456C43.1304 50.7579 43.0458 50.8905 42.9896 51.0358C42.9335 51.1811 42.9067 51.3361 42.9111 51.4918C42.9155 51.6475 42.9508 51.8008 43.015 51.9428C43.0792 52.0847 43.1711 52.2124 43.2851 52.3184C43.7149 52.7316 44.1855 53.1001 44.6896 53.4184C44.8199 53.5007 44.9651 53.5566 45.1169 53.5828C45.2688 53.609 45.4243 53.605 45.5747 53.5712C45.725 53.5373 45.8672 53.4741 45.9931 53.3853C46.119 53.2964 46.2263 53.1836 46.3086 53.0534C46.3909 52.9231 46.4468 52.7779 46.473 52.626C46.4992 52.4741 46.4953 52.3186 46.4614 52.1683C46.4275 52.0179 46.3643 51.8758 46.2755 51.7498C46.1866 51.6239 46.0739 51.5167 45.9436 51.4344L45.9418 51.4335Z" fill="#3B3735"/>
<path d="M43.0586 47.2318C42.9794 46.8243 42.9395 46.4101 42.9395 45.9949V45.9295C42.9414 45.7754 42.9129 45.6225 42.8556 45.4795C42.7984 45.3365 42.7135 45.2061 42.6059 45.0959C42.4983 44.9857 42.37 44.8977 42.2283 44.8371C42.0867 44.7765 41.9345 44.7444 41.7804 44.7427H41.7661C41.4574 44.7429 41.1612 44.8648 40.9417 45.0819C40.7222 45.299 40.5972 45.5939 40.5936 45.9026V45.9922C40.5936 46.558 40.6479 47.1225 40.7558 47.6779C40.8218 47.9768 41.0019 48.238 41.2578 48.406C41.5137 48.5739 41.8251 48.6351 42.1255 48.5767C42.426 48.5183 42.6917 48.3448 42.866 48.0932C43.0403 47.8416 43.1094 47.5319 43.0586 47.23V47.2318Z" fill="#3B3735"/>
<path d="M57.4901 52.4209H55.9405C55.7838 52.4165 55.6277 52.4437 55.4817 52.5006C55.3356 52.5576 55.2024 52.6434 55.09 52.7527C54.9775 52.862 54.8882 52.9928 54.8272 53.1373C54.7662 53.2817 54.7347 53.4369 54.7347 53.5938C54.7347 53.7506 54.7662 53.9058 54.8272 54.0503C54.8882 54.1947 54.9775 54.3255 55.09 54.4348C55.2024 54.5442 55.3356 54.6299 55.4817 54.6869C55.6277 54.7439 55.7838 54.771 55.9405 54.7667H57.4901C57.6468 54.771 57.8029 54.7439 57.949 54.6869C58.0951 54.6299 58.2282 54.5442 58.3407 54.4348C58.4531 54.3255 58.5424 54.1947 58.6034 54.0503C58.6644 53.9058 58.6959 53.7506 58.6959 53.5938C58.6959 53.4369 58.6644 53.2817 58.6034 53.1373C58.5424 52.9928 58.4531 52.862 58.3407 52.7527C58.2282 52.6434 58.0951 52.5576 57.949 52.5006C57.8029 52.4437 57.6468 52.4165 57.4901 52.4209Z" fill="#3B3735"/>
<path d="M76.3238 54.8076C75.8717 54.4502 75.3926 54.1282 74.8907 53.8447C74.6202 53.6998 74.3037 53.6665 74.009 53.7522C73.7143 53.8378 73.4649 54.0355 73.3142 54.3029C73.1636 54.5702 73.1236 54.886 73.203 55.1824C73.2824 55.4789 73.4748 55.7324 73.7389 55.8887C74.1359 56.1126 74.515 56.3669 74.8728 56.6492C75.117 56.8421 75.4278 56.93 75.7369 56.8938C76.046 56.8575 76.328 56.6999 76.5209 56.4557C76.7138 56.2115 76.8018 55.9007 76.7655 55.5916C76.7292 55.2825 76.5716 55.0005 76.3274 54.8076H76.3238Z" fill="#3B3735"/>
<path d="M71.969 73.2332C71.9263 72.9249 71.7629 72.6463 71.5149 72.4585C71.2668 72.2707 70.9542 72.1892 70.646 72.2318C70.2583 72.2851 69.8675 72.3127 69.4762 72.3142H69.2568C68.9513 72.3233 68.6615 72.4512 68.4489 72.6708C68.2363 72.8903 68.1177 73.1841 68.1184 73.4897C68.1191 73.7953 68.239 74.0886 68.4526 74.3071C68.6662 74.5257 68.9567 74.6523 69.2622 74.66H69.487C69.9823 74.6578 70.4769 74.6228 70.9676 74.5552C71.2756 74.5125 71.5541 74.3493 71.7419 74.1014C71.9296 73.8535 72.0113 73.5412 71.969 73.2332Z" fill="#3B3735"/>
<path d="M77.1461 69.9352C77.0399 69.8235 76.9127 69.7339 76.7718 69.6714C76.6309 69.609 76.4791 69.5749 76.325 69.5711C76.1709 69.5674 76.0177 69.5941 75.8739 69.6496C75.7302 69.7052 75.5988 69.7885 75.4872 69.8949C75.1571 70.2095 74.8031 70.4982 74.4285 70.7583C74.2984 70.8446 74.1868 70.956 74.1002 71.0859C74.0137 71.2159 73.9539 71.3618 73.9245 71.5151C73.8951 71.6684 73.8965 71.8261 73.9288 71.9788C73.961 72.1316 74.0234 72.2764 74.1124 72.4047C74.2013 72.533 74.315 72.6423 74.4467 72.7261C74.5784 72.81 74.7255 72.8667 74.8794 72.893C75.0333 72.9193 75.1909 72.9145 75.3429 72.8791C75.495 72.8437 75.6384 72.7783 75.7649 72.6868C76.2402 72.3577 76.6894 71.9923 77.1084 71.594C77.3334 71.379 77.4637 71.0835 77.4708 70.7724C77.4778 70.4613 77.361 70.1602 77.1461 69.9352Z" fill="#3B3735"/>
<path d="M79.4301 64.2379C79.1244 64.1805 78.8084 64.2469 78.5516 64.4224C78.2948 64.5979 78.1182 64.8682 78.0606 65.1739C77.9755 65.6214 77.8557 66.0616 77.7023 66.4906C77.6463 66.6366 77.62 66.7924 77.625 66.9488C77.63 67.1052 77.6663 67.2589 77.7316 67.4011C77.7969 67.5432 77.89 67.6709 78.0054 67.7765C78.1208 67.8822 78.2562 67.9637 78.4035 68.0162C78.5509 68.0688 78.7073 68.0914 78.8635 68.0826C79.0197 68.0738 79.1725 68.0339 79.3131 67.9652C79.4536 67.8965 79.579 67.8004 79.6819 67.6825C79.7847 67.5646 79.863 67.4274 79.912 67.2788C80.1044 66.7344 80.2542 66.1759 80.3599 65.6083C80.4177 65.3034 80.3523 64.988 80.178 64.7311C80.0038 64.4743 79.7348 64.2969 79.4301 64.2379Z" fill="#3B3735"/>
<path d="M80.127 60.4659C79.9672 59.9102 79.7641 59.3678 79.5197 58.8438C79.4556 58.7025 79.3642 58.5752 79.2506 58.4694C79.137 58.3637 79.0036 58.2815 78.8581 58.2277C78.7125 58.1738 78.5577 58.1494 78.4026 58.1558C78.2476 58.1622 78.0953 58.1992 77.9547 58.2649C77.8141 58.3305 77.6879 58.4234 77.5834 58.5381C77.4789 58.6529 77.3982 58.7872 77.346 58.9334C77.2938 59.0795 77.2711 59.2346 77.2792 59.3895C77.2873 59.5445 77.3261 59.6964 77.3933 59.8362C77.5859 60.2489 77.7458 60.6759 77.8716 61.1135C77.9124 61.2635 77.9826 61.4039 78.0782 61.5266C78.1737 61.6492 78.2927 61.7517 78.4282 61.8279C78.5636 61.9042 78.7129 61.9528 78.8673 61.9709C79.0217 61.989 79.1782 61.9762 79.3277 61.9333C79.4771 61.8904 79.6165 61.8182 79.7378 61.721C79.8591 61.6237 79.9599 61.5033 80.0342 61.3668C80.1086 61.2303 80.1551 61.0803 80.171 60.9257C80.1869 60.771 80.172 60.6147 80.127 60.4659Z" fill="#3B3735"/>
<path d="M63.6873 52.4209H62.1378C61.8323 52.4293 61.5422 52.5566 61.3291 52.7756C61.116 52.9947 60.9968 53.2882 60.9968 53.5938C60.9968 53.8994 61.116 54.1929 61.3291 54.4119C61.5422 54.631 61.8323 54.7583 62.1378 54.7667H63.6873C63.9928 54.7583 64.2829 54.631 64.496 54.4119C64.709 54.1929 64.8283 53.8994 64.8283 53.5938C64.8283 53.2882 64.709 52.9947 64.496 52.7756C64.2829 52.5566 63.9928 52.4293 63.6873 52.4209Z" fill="#3B3735"/>
<path d="M58.4171 72.3652H58.4117L56.8621 72.3724C56.5567 72.3815 56.2668 72.5094 56.0542 72.729C55.8416 72.9485 55.7231 73.2423 55.7238 73.5479C55.7245 73.8535 55.8444 74.1468 56.058 74.3654C56.2716 74.5839 56.562 74.7105 56.8675 74.7182H56.8729L58.4224 74.7111C58.7279 74.7019 59.0178 74.574 59.2304 74.3545C59.443 74.1349 59.5615 73.8411 59.5608 73.5355C59.5601 73.2299 59.4402 72.9367 59.2266 72.7181C59.013 72.4995 58.7226 72.3729 58.4171 72.3652Z" fill="#3B3735"/>
<path d="M69.9367 52.4297C69.771 52.4225 69.6025 52.4189 69.4368 52.4189H68.3352C68.0297 52.4274 67.7396 52.5546 67.5265 52.7737C67.3134 52.9927 67.1942 53.2863 67.1942 53.5918C67.1942 53.8974 67.3134 54.191 67.5265 54.41C67.7396 54.6291 68.0297 54.7563 68.3352 54.7648H69.4368C69.5694 54.7648 69.7014 54.7678 69.8328 54.7737H69.8856C70.1902 54.7705 70.4816 54.6489 70.6981 54.4347C70.9147 54.2205 71.0395 53.9305 71.0462 53.626C71.0528 53.3215 70.9407 53.0263 70.7337 52.8029C70.5266 52.5794 70.2408 52.4453 69.9367 52.4288V52.4297Z" fill="#3B3735"/>
<path d="M64.6144 72.3364H64.6091L63.0595 72.3436C62.7541 72.3527 62.4642 72.4807 62.2516 72.7002C62.039 72.9197 61.9204 73.2135 61.9211 73.5191C61.9218 73.8247 62.0417 74.118 62.2553 74.3366C62.4689 74.5551 62.7594 74.6817 63.0649 74.6894H63.0703L64.6198 74.6823C64.9253 74.6732 65.2151 74.5452 65.4277 74.3257C65.6403 74.1062 65.7589 73.8124 65.7582 73.5068C65.7575 73.2012 65.6376 72.9079 65.424 72.6893C65.2104 72.4708 64.9199 72.3441 64.6144 72.3364Z" fill="#3B3735"/>
</g>
</g>
</g>
<defs>
<clipPath id="clip0_9_1215">
<rect width="80" height="80" fill="white" transform="translate(0.5)"/>
</clipPath>
<clipPath id="clip1_9_1215">
<rect width="80" height="80" fill="white" transform="translate(0.5)"/>
</clipPath>
<clipPath id="clip2_9_1215">
<rect width="79.9275" height="80" fill="white" transform="translate(0.536255)"/>
</clipPath>
</defs>
</svg>
