<svg width="83" height="83" viewBox="0 0 83 83" fill="none" xmlns="http://www.w3.org/2000/svg">
<g clip-path="url(#clip0_9_1081)">
<g clip-path="url(#clip1_9_1081)">
<g clip-path="url(#clip2_9_1081)">
<path d="M9.39075 80.646C11.9427 79.9617 13.087 75.9588 11.9465 71.7051C10.806 67.4514 7.81268 64.5578 5.26069 65.242C2.70869 65.9263 1.56444 69.9292 2.70493 74.1829C3.84541 78.4366 6.83876 81.3302 9.39075 80.646Z" fill="#FFD2C6"/>
<path fill-rule="evenodd" clip-rule="evenodd" d="M5.24512 65.2389C7.79718 64.5549 10.7903 67.449 11.9303 71.7031C13.0703 75.9572 11.9253 79.9603 9.37222 80.6443L41.479 72.0441L71.1467 64.0909C71.4502 64.0092 71.7388 63.88 72.0018 63.7079C73.9408 62.4449 74.7078 58.8948 73.7018 55.1507C72.5618 50.8966 69.5687 48.0025 67.0166 48.6865L63.2285 49.7016L50.1282 53.2126L41.48 55.5297L10.9623 63.7079L5.24512 65.2389Z" fill="#E76F51"/>
<path fill-rule="evenodd" clip-rule="evenodd" d="M71.1499 64.0911L41.4829 72.0401L73.5889 80.6401C71.0369 79.9561 69.8889 75.9531 71.0309 71.6991C72.1729 67.4451 75.1639 64.5511 77.7159 65.2351L72.0039 63.7041C71.7418 63.8774 71.4539 64.008 71.1509 64.0911H71.1499Z" fill="#E76F51"/>
<path d="M80.2922 74.188C81.4327 69.9343 80.2885 65.9313 77.7365 65.2471C75.1845 64.5629 72.1911 67.4565 71.0506 71.7101C69.9101 75.9638 71.0544 79.9668 73.6064 80.651C76.1584 81.3353 79.1517 78.4417 80.2922 74.188Z" fill="#E76F51"/>
<path fill-rule="evenodd" clip-rule="evenodd" d="M10.9622 63.7075L41.4832 55.5295L30.9152 52.6975L20.6872 49.9575L15.9402 48.6865C13.3882 48.0025 10.3952 50.8965 9.25519 55.1505C8.25519 58.8945 9.02319 62.4445 10.9622 63.7075Z" fill="#E76F51"/>
<path fill-rule="evenodd" clip-rule="evenodd" d="M30.9155 52.698L41.4835 55.53L50.1315 53.213C52.9075 41.895 47.8555 34.323 44.1075 30.791C45.2235 40.121 37.4075 45.782 37.4075 45.782C34.6165 43.709 34.2975 39.403 34.2975 39.403C30.6485 43.052 29.3365 47.036 30.9145 52.703L30.9155 52.698Z" fill="#FF8A6C"/>
<path fill-rule="evenodd" clip-rule="evenodd" d="M30.9156 52.6976C29.3376 47.0345 30.6496 43.0514 34.2987 39.3973C34.2987 39.3973 34.6177 43.7034 37.4088 45.7764C37.4088 45.7764 45.223 40.1143 44.109 30.7851C47.857 34.3172 52.9092 41.8853 50.1331 53.2076L63.2334 49.6965C69.5576 32.7591 59.1583 18.4608 59.1583 18.4608C58.7709 20.5485 57.9265 22.5248 56.6857 24.248C55.4449 25.9711 53.8383 27.3986 51.9811 28.428C56.8473 6.66348 40.5799 2.27637 40.5799 2.27637C47.834 15.4767 35.3167 14.3157 35.3167 28.591C35.3167 22.7509 33.5627 18.3838 28.2166 14.7957C32.1597 30.7191 9.85711 31.7891 20.6834 49.9565L30.9156 52.6976Z" fill="#FFB63B"/>
<path d="M81.915 67.9317C81.7092 66.957 81.2515 66.0532 80.5875 65.3105C79.9236 64.5677 79.0766 64.012 78.1309 63.6986L74.7988 62.8056C75.0261 62.3551 75.21 61.8839 75.3478 61.3986C75.9065 59.209 75.8719 56.9102 75.2478 54.7384C73.8588 49.5553 70.0647 46.2202 66.6096 47.1462L65.6476 47.4042C67.4142 40.7679 67.2176 33.7616 65.0816 27.2347C64.0214 23.7897 62.4604 20.5192 60.4485 17.5285C60.2645 17.2759 60.0105 17.083 59.7179 16.9735C59.4252 16.8641 59.1069 16.843 58.8024 16.9129C58.4979 16.9827 58.2206 17.1405 58.005 17.3666C57.7893 17.5926 57.6448 17.877 57.5894 18.1845C57.1517 20.6504 55.9844 22.9283 54.2383 24.7237C55.3643 15.2484 52.2883 9.43529 49.2862 6.12321C47.0475 3.62653 44.1869 1.76801 40.996 0.737077C40.694 0.655688 40.3747 0.664886 40.0779 0.763527C39.7811 0.862168 39.5198 1.0459 39.3266 1.29186C39.1334 1.53783 39.0168 1.83517 38.9912 2.1469C38.9657 2.45863 39.0324 2.771 39.1829 3.04513C42.751 9.53729 41.174 11.6813 38.5579 15.2204C37.2872 16.8333 36.2049 18.5861 35.3319 20.4446C33.9559 17.5799 31.7978 15.1628 29.1067 13.4724C28.8392 13.2938 28.524 13.2003 28.2024 13.2041C27.8808 13.2079 27.5678 13.3088 27.3046 13.4936C27.0414 13.6784 26.8402 13.9385 26.7274 14.2397C26.6146 14.5409 26.5955 14.8692 26.6726 15.1814C28.2477 21.5416 25.1226 25.2277 21.8135 29.1298C18.0224 33.6019 13.7793 38.609 17.6214 47.4852L16.3574 47.1452C12.9023 46.2192 9.10721 49.5543 7.71918 54.7374C6.9068 57.3947 7.06668 60.2544 8.17019 62.8046L4.83711 63.6976C3.89207 64.0117 3.04579 64.5678 2.38257 65.3107C1.71935 66.0536 1.26232 66.9573 1.05701 67.9317C0.53768 70.1256 0.570981 72.4141 1.15393 74.592C1.73688 76.7698 2.85124 78.7689 4.39709 80.41C5.50363 81.5764 7.01997 82.2673 8.6262 82.3371C9.01928 82.3369 9.41064 82.2852 9.79023 82.1831L41.483 73.6909L73.1778 82.1831C73.56 82.2856 73.9541 82.3373 74.3498 82.3371C77.4499 82.3371 80.583 79.192 81.816 74.5909C82.4401 72.4188 82.4747 70.1196 81.916 67.9297L81.915 67.9317ZM67.4366 50.2313C68.8937 49.8413 71.2237 52.0413 72.1688 55.5674C72.2428 55.8444 72.3058 56.1224 72.3578 56.4004L69.4137 57.1895C69.2083 57.2408 69.0151 57.3324 68.8455 57.4592C68.6758 57.5859 68.5332 57.7451 68.4257 57.9276C68.3183 58.11 68.2482 58.312 68.2197 58.5218C68.1911 58.7316 68.2046 58.945 68.2594 59.1495C68.3141 59.3541 68.4091 59.5457 68.5386 59.7131C68.6682 59.8806 68.8298 60.0205 69.0141 60.1249C69.1983 60.2292 69.4015 60.2958 69.6118 60.3209C69.822 60.3459 70.0351 60.3288 70.2387 60.2705L72.4628 59.6705C72.4209 59.9575 72.3604 60.2414 72.2818 60.5205C72.2133 60.9604 72.0364 61.3763 71.767 61.7307C71.4976 62.0852 71.1442 62.3669 70.7387 62.5506L13.5923 77.863C14.133 75.6999 14.0926 73.4323 13.4753 71.2898C12.9353 69.1278 11.8389 67.1448 10.2952 65.5377L67.4366 50.2313ZM24.2466 31.1918C27.0937 27.8337 30.2467 24.1116 30.2897 18.5915C32.6898 21.1576 33.7218 24.2667 33.7218 28.5968C33.7218 29.0198 33.8899 29.4255 34.189 29.7246C34.4881 30.0237 34.8938 30.1918 35.3169 30.1918C35.7399 30.1918 36.1456 30.0237 36.4447 29.7246C36.7438 29.4255 36.9119 29.0198 36.9119 28.5968C36.9119 22.8336 39.0549 19.9275 41.127 17.1185C43.3991 14.0374 45.5681 11.0953 43.7921 5.5952C44.9872 6.37778 46.0742 7.31417 47.0251 8.38026C51.1642 13.0374 52.3083 19.6685 50.4252 28.0897C50.3598 28.3826 50.3784 28.688 50.4788 28.9708C50.5792 29.2536 50.7573 29.5024 50.9927 29.6885C51.2281 29.8746 51.5113 29.9905 51.8096 30.023C52.1079 30.0554 52.4094 30.003 52.6793 29.8718C55.7506 28.1973 58.1889 25.5629 59.6214 22.3716C60.6087 24.2774 61.4297 26.2649 62.0755 28.3118C64.2487 34.8291 64.2259 41.8791 62.0105 48.3822L52.1933 51.0123C52.2833 50.4323 52.3563 49.8553 52.4093 49.2843C52.4402 48.8673 52.3062 48.4549 52.0361 48.1358C51.766 47.8167 51.3814 47.6164 50.9651 47.578C50.5488 47.5396 50.1341 47.6661 49.8102 47.9305C49.4862 48.1948 49.2791 48.5757 49.2332 48.9913C49.1397 49.9771 48.9898 50.9567 48.7842 51.9253L41.484 53.8814L32.2318 51.4023C31.8198 49.9739 31.7191 48.4736 31.9365 47.0029C32.1538 45.5322 32.6842 44.1253 33.4918 42.8771C34.0601 44.5267 35.0894 45.9788 36.4579 47.0612C36.7306 47.2628 37.0604 47.3725 37.3996 47.3745C37.7388 47.3765 38.0698 47.2706 38.3449 47.0722C38.6449 46.8572 44.5551 42.4821 45.6451 35.0049C45.8921 35.3579 46.1391 35.7329 46.3811 36.1319C46.6117 36.4676 46.9619 36.7023 47.36 36.788C47.7581 36.8738 48.1739 36.804 48.5222 36.593C48.8705 36.382 49.1249 36.0458 49.2333 35.6533C49.3417 35.2608 49.2958 34.8417 49.1052 34.4819C48.0259 32.6998 46.7143 31.0691 45.2051 29.6328C44.9666 29.4083 44.6649 29.2627 44.3408 29.2157C44.0167 29.1687 43.6861 29.2226 43.3937 29.3701C43.1013 29.5175 42.8614 29.7514 42.7065 30.0399C42.5516 30.3284 42.4893 30.6576 42.528 30.9828C42.9273 34.4593 42.0018 37.9586 39.936 40.7831C39.2187 41.8135 38.3966 42.767 37.4829 43.6281C36.5969 42.3354 36.0492 40.8411 35.8899 39.282C35.8672 38.9775 35.7577 38.6859 35.5742 38.4419C35.3907 38.1978 35.141 38.0115 34.8548 37.9052C34.5686 37.7988 34.2579 37.7768 33.9595 37.8419C33.6612 37.9069 33.3878 38.0562 33.1718 38.272C29.5867 41.8581 28.1777 45.7822 28.8267 50.4823L21.7395 48.5822C16.8224 39.945 20.1075 36.0699 24.2476 31.1818L24.2466 31.1918ZM10.7573 55.7464L13.7973 56.5614C14.2032 56.6628 14.6327 56.6006 14.9932 56.3883C15.3537 56.176 15.6163 55.8306 15.7245 55.4265C15.8327 55.0224 15.7778 54.5919 15.5717 54.2279C15.3655 53.8639 15.0246 53.5954 14.6223 53.4804L11.9743 52.7704C13.0743 50.9463 14.5183 49.9543 15.5344 50.2263L35.3249 55.5264L11.3753 61.9456C10.4932 60.8555 10.0632 58.4915 10.7573 55.7464ZM4.23709 73.7669C3.76828 72.1522 3.72932 70.4431 4.12409 68.8087C4.19275 68.37 4.36933 67.9552 4.63796 67.6015C4.90659 67.2479 5.25886 66.9665 5.66313 66.7827C5.7767 66.7528 5.8937 66.738 6.01113 66.7387C6.78305 66.821 7.49637 67.1887 8.01118 67.7697C9.17018 68.9876 9.99096 70.4872 10.3922 72.1198C11.3373 75.6469 10.4172 78.72 8.96221 79.107C8.51928 79.1506 8.07246 79.0833 7.66203 78.9112C7.2516 78.7391 6.89045 78.4675 6.61115 78.121C5.45211 76.9031 4.63133 75.4035 4.23009 73.7709L4.23709 73.7669ZM54.1383 70.3008C54.1633 70.3088 54.1873 70.3178 54.2123 70.3248L59.1294 71.6418C59.5129 71.7452 59.9212 71.7018 60.2743 71.5199C60.6274 71.3381 60.9 71.0309 61.0385 70.6587C61.177 70.2864 61.1715 69.8758 61.0232 69.5074C60.8748 69.1389 60.5943 68.8392 60.2365 68.6667L71.5637 65.6317C71.7797 65.5736 71.991 65.4994 72.1958 65.4097L72.6728 65.5377C71.1586 67.1668 70.0662 69.1417 69.4909 71.2902C68.9157 73.4386 68.8751 75.6952 69.3727 77.863L47.6462 72.0408L54.1383 70.3008ZM78.7389 73.7669C77.7939 77.2939 75.4588 79.493 74.0068 79.103C72.5548 78.713 71.6317 75.6419 72.5768 72.1158C72.978 70.4831 73.7988 68.9836 74.9578 67.7657C75.4726 67.1846 76.1859 66.8169 76.9579 66.7347C77.0753 66.7341 77.1923 66.7489 77.3059 66.7787C77.7114 66.9624 78.0648 67.2441 78.3342 67.5985C78.6036 67.9529 78.7805 68.3689 78.8489 68.8087C79.2436 70.4428 79.2046 72.1515 78.7359 73.7659L78.7389 73.7669Z" fill="#3B3735"/>
<path d="M48.8152 41.969C48.8142 42.2857 48.9072 42.5955 49.0824 42.8593C49.2576 43.1231 49.5071 43.3289 49.7994 43.4508C50.0917 43.5727 50.4136 43.6051 50.7243 43.5439C51.0349 43.4827 51.3205 43.3307 51.5448 43.1072C51.769 42.8836 51.9219 42.5985 51.9841 42.288C52.0462 41.9775 52.0148 41.6556 51.8939 41.3629C51.7729 41.0703 51.5678 40.8201 51.3046 40.644C51.0414 40.468 50.7318 40.374 50.4152 40.374C50.2053 40.3732 49.9973 40.4139 49.8031 40.4937C49.609 40.5736 49.4325 40.6909 49.2838 40.8391C49.1352 40.9873 49.0172 41.1634 48.9368 41.3573C48.8564 41.5512 48.8151 41.7591 48.8152 41.969Z" fill="#3B3735"/>
<path d="M20.6274 70.6946C20.7673 70.6945 20.9064 70.676 21.0414 70.6396L24.5544 69.6986C24.7599 69.6473 24.953 69.5557 25.1226 69.4289C25.2923 69.3022 25.435 69.143 25.5424 68.9605C25.6498 68.7781 25.7199 68.5761 25.7484 68.3663C25.777 68.1565 25.7635 67.9431 25.7087 67.7386C25.654 67.5341 25.559 67.3425 25.4295 67.175C25.2999 67.0076 25.1383 66.8676 24.954 66.7633C24.7698 66.6589 24.5666 66.5923 24.3564 66.5673C24.1461 66.5423 23.933 66.5594 23.7294 66.6176L20.2164 67.5586C19.8424 67.6585 19.5175 67.891 19.3023 68.2128C19.087 68.5345 18.9961 68.9236 19.0466 69.3074C19.097 69.6912 19.2853 70.0436 19.5763 70.2989C19.8674 70.5541 20.2403 70.6948 20.6274 70.6946Z" fill="#3B3735"/>
<path d="M44.8661 63.5103C45.0059 63.5101 45.1451 63.4916 45.2801 63.4553L48.7931 62.5143C49.1953 62.3993 49.5362 62.1308 49.7424 61.7668C49.9485 61.4028 50.0034 60.9723 49.8952 60.5682C49.787 60.1641 49.5244 59.8187 49.1639 59.6064C48.8034 59.3941 48.3739 59.3319 47.968 59.4333L44.455 60.3743C44.088 60.481 43.7712 60.7156 43.5622 61.0357C43.3531 61.3557 43.2656 61.74 43.3154 62.1191C43.3652 62.4981 43.5491 62.8467 43.8337 63.1019C44.1183 63.3571 44.4849 63.502 44.8671 63.5103H44.8661Z" fill="#3B3735"/>
</g>
</g>
</g>
<defs>
<clipPath id="clip0_9_1081">
<rect width="81.72" height="81.66" fill="white" transform="translate(0.639893 0.680176)"/>
</clipPath>
<clipPath id="clip1_9_1081">
<rect width="81.72" height="81.66" fill="white" transform="translate(0.639893 0.680176)"/>
</clipPath>
<clipPath id="clip2_9_1081">
<rect width="81.72" height="81.656" fill="white" transform="translate(0.639893 0.682129)"/>
</clipPath>
</defs>
</svg>
