<svg width="85" height="85" viewBox="0 0 85 85" fill="none" xmlns="http://www.w3.org/2000/svg">
<g clip-path="url(#clip0_9_1185)">
<g clip-path="url(#clip1_9_1185)">
<g clip-path="url(#clip2_9_1185)">
<path d="M71.3073 17.03C71.3073 17.03 72.1933 22.673 67.3413 34.109C66.5913 35.84 65.7193 37.721 64.6833 39.738C62.3807 44.064 59.3037 47.9307 55.6053 51.146C53.3809 53.132 50.9761 54.9064 48.4223 56.446V56.46C41.1573 60.849 33.7973 62.675 30.2123 60.917L28.8633 60.268C28.8633 60.268 29.8033 48.628 34.0703 40.327C35.6594 37.1574 38.0875 34.4844 41.0903 32.599C45.6293 29.682 50.9993 28.551 55.8383 26.899C60.5683 25.291 64.7793 23.192 67.1923 18.476L68.6103 15.709L69.9593 16.377L71.3073 17.03Z" fill="#FFD2C6"/>
<path d="M71.5544 11.3868C71.5512 12.6404 71.2473 13.8749 70.6684 14.9868L69.9594 16.3768L68.6104 15.7088L63.2264 13.0778C62.694 12.807 62.2213 12.432 61.8364 11.9752C61.4514 11.5184 61.162 10.989 60.9854 10.4184C60.8087 9.84773 60.7482 9.24745 60.8077 8.65304C60.8671 8.05864 61.0452 7.4822 61.3314 6.95784C61.7286 6.17635 62.3327 5.51892 63.0779 5.05727C63.8231 4.59561 64.6808 4.34744 65.5574 4.33984C66.2282 4.34121 66.8898 4.49509 67.4924 4.78984C68.7246 5.39287 69.7604 6.33315 70.4794 7.50145C71.1984 8.66976 71.5712 10.0181 71.5544 11.3898V11.3868Z" fill="#E76F51"/>
<path d="M83.3857 15.326C83.3878 16.0809 83.2051 16.8249 82.8537 17.493C82.3114 18.5856 81.3641 19.4234 80.2134 19.8281C79.0627 20.2328 77.7996 20.1725 76.6927 19.66L71.3097 17.03L69.9607 16.376L70.6697 14.986C71.3332 13.6844 72.3409 12.5895 73.5832 11.8204C74.8254 11.0514 76.2547 10.6376 77.7157 10.624C78.8353 10.6255 79.94 10.882 80.9457 11.374C81.6827 11.7372 82.3024 12.3006 82.734 12.9997C83.1655 13.6989 83.3914 14.5044 83.3857 15.326Z" fill="#E76F51"/>
<path d="M67.5196 34.2034C70.4906 35.6614 70.6816 41.1684 67.9286 46.5114C65.1756 51.8544 60.5406 55.0034 57.5696 53.5584C57.0981 53.3073 56.6816 52.9644 56.3445 52.55C56.0074 52.1357 55.7565 51.6581 55.6066 51.1454C59.3057 47.9303 62.3833 44.0636 64.6866 39.7374C65.7226 37.7204 66.5946 35.8374 67.3446 34.1084L67.3586 34.1224L67.5196 34.2034Z" fill="#E76F51"/>
<path d="M53.8094 18.3109C56.0854 19.3739 56.7264 22.6999 55.7314 26.5569L55.8404 26.8979C51.0014 28.5469 45.6314 29.6789 41.0924 32.5979L41.0514 32.1979C41.2519 29.8388 41.9488 27.5488 43.0964 25.4779C45.9724 20.0939 50.7704 16.8779 53.8094 18.3089V18.3109Z" fill="#E76F51"/>
<path d="M49.7344 39.3422C51.9564 40.4322 52.1744 44.4122 50.2114 48.2292C49.4808 49.6904 48.4552 50.9843 47.1994 52.0292C46.0595 49.2033 44.2389 46.7028 41.8994 44.7502C41.9814 44.5862 42.0634 44.4372 42.1444 44.2732C44.1074 40.4572 47.5014 38.2482 49.7364 39.3392L49.7344 39.3422Z" fill="#FC6E51"/>
<path d="M23.0979 26.2983C23.3067 27.1411 23.4118 28.0061 23.4109 28.8743C23.4109 31.7663 22.2621 34.5397 20.2172 36.5846C18.1723 38.6295 15.3988 39.7783 12.5069 39.7783C9.61499 39.7783 6.84151 38.6295 4.79662 36.5846C2.75172 34.5397 1.60291 31.7663 1.60291 28.8743C1.60203 28.0061 1.70714 27.1411 1.91591 26.2983C5.18861 27.99 8.81885 28.8733 12.5029 28.8743C16.1897 28.8746 19.8228 27.9913 23.0979 26.2983Z" fill="#FFB63B"/>
<path d="M12.508 17.9697C14.9522 17.9665 17.3263 18.7863 19.2476 20.2971C21.169 21.8079 22.5257 23.9217 23.099 26.2977C19.8254 27.9904 16.1938 28.8737 12.5085 28.8737C8.82317 28.8737 5.19155 27.9904 1.91797 26.2977C2.49124 23.9219 3.84775 21.8082 5.7689 20.2974C7.69005 18.7866 10.0639 17.9667 12.508 17.9697Z" fill="#E76F51"/>
<path d="M84.4473 13.4708C84.2119 12.75 83.8338 12.084 83.3356 11.5124C82.8374 10.9408 82.2292 10.4754 81.5473 10.1438C80.1759 9.49062 78.6612 9.19625 77.145 9.28824C75.6287 9.38024 74.1607 9.85561 72.8783 10.6698C72.8238 9.95834 72.6842 9.25599 72.4623 8.5778C72.1071 7.4924 71.5374 6.48943 70.787 5.62846C70.0367 4.76748 69.121 4.06605 68.0943 3.5658C66.6645 2.90058 65.0318 2.81814 63.5423 3.33594C62.0527 3.85374 60.8232 4.93111 60.1143 6.3398C59.7436 7.04803 59.5189 7.82352 59.4536 8.62024C59.3884 9.41696 59.4838 10.2187 59.7343 10.9778C59.9699 11.6981 60.3481 12.3636 60.8463 12.9347C61.3445 13.5058 61.9526 13.9707 62.6343 14.3018L66.7673 16.3228L65.9813 17.8528C64.1113 21.4908 61.0813 23.4128 57.4283 24.8588C57.8833 21.1518 56.7863 18.1948 54.3903 17.0728C50.6433 15.3188 45.1533 18.7278 41.8903 24.8348C40.6899 27.0133 39.9487 29.4147 39.7123 31.8908C36.8024 33.8726 34.4423 36.5596 32.8523 39.7008C28.5143 48.1378 27.5433 59.6678 27.5043 60.1558L27.4293 61.0808L29.6103 62.1478C30.8971 62.7288 32.299 63.0102 33.7103 62.9708C39.6323 62.9708 48.0723 59.1898 55.1993 53.2488C55.6399 53.8821 56.2297 54.3971 56.9164 54.7486C57.6032 55.1 58.366 55.2769 59.1373 55.2638C62.5373 55.2638 66.5803 52.1128 69.1373 47.1338C71.1423 43.2338 71.7613 39.1618 70.7903 36.2338C70.4688 35.1896 69.8537 34.26 69.0183 33.5558C71.8413 26.6288 72.5693 21.8498 72.7003 19.2268L76.0823 20.8798C76.8693 21.2639 77.7336 21.463 78.6093 21.4618C79.7379 21.455 80.8431 21.1386 81.8044 20.5473C82.7657 19.9559 83.5463 19.1121 84.0613 18.1078C84.4331 17.4002 84.6588 16.6251 84.7251 15.8285C84.7914 15.0319 84.697 14.2302 84.4473 13.4708ZM62.3193 10.1188C62.1835 9.70224 62.1328 9.26258 62.1704 8.82604C62.2081 8.38949 62.3332 7.96498 62.5383 7.5778C62.9191 6.80182 63.5865 6.20424 64.3997 5.91128C65.2129 5.61832 66.1082 5.65293 66.8963 6.0078C67.5971 6.34954 68.222 6.82866 68.7339 7.41669C69.2458 8.00472 69.6343 8.68966 69.8763 9.4308C70.1408 10.2386 70.2401 11.0913 70.1683 11.9383C70.0964 12.7852 69.855 13.6091 69.4583 14.3608L69.3583 14.5558L69.2143 14.4848L63.8313 11.8518C63.4764 11.678 63.1599 11.4349 62.9006 11.1367C62.6412 10.8385 62.4442 10.4914 62.3213 10.1158L62.3193 10.1188ZM44.2933 26.1188C47.0013 21.0458 51.1783 18.5788 53.2323 19.5418C54.7323 20.2418 55.2123 22.7828 54.4753 25.9028C53.5853 26.1918 52.6753 26.4728 51.7373 26.7598C48.6615 27.6134 45.6632 28.725 42.7743 30.0828C43.1155 28.7035 43.6261 27.3717 44.2943 26.1178L44.2933 26.1188ZM43.5833 44.4988C45.2833 41.4988 47.8553 39.9378 49.1283 40.5608C49.3388 40.6795 49.5229 40.8397 49.6695 41.0317C49.8162 41.2237 49.9222 41.4435 49.9813 41.6778C50.4733 43.1618 50.0903 45.4858 49.0023 47.5988C48.6085 48.358 48.1319 49.0713 47.5813 49.7258C46.5426 47.7769 45.1914 46.0114 43.5813 44.4998L43.5833 44.4988ZM68.2073 37.0988C68.9283 39.2758 68.3453 42.7258 66.7163 45.8898C64.1443 50.8898 60.1543 53.2978 58.1703 52.3298C57.7856 52.1277 57.4672 51.8191 57.2533 51.4408C60.7474 48.269 63.6697 44.5196 65.8923 40.3568C66.6233 38.9368 67.2523 37.6038 67.8373 36.3128C67.9916 36.5589 68.1161 36.8224 68.2083 37.0978L68.2073 37.0988ZM63.4683 39.1108C60.1172 45.2704 55.2531 50.4755 49.3343 54.2358C49.1773 53.6248 48.9813 53.0358 48.7703 52.4458C49.8468 51.3998 50.7435 50.1835 51.4243 48.8458C52.8723 46.0308 53.2983 43.0308 52.5653 40.8208C52.3951 40.2415 52.1089 39.7029 51.7242 39.2376C51.3395 38.7722 50.8643 38.3899 50.3273 38.1138C47.6013 36.7798 43.8323 38.7938 41.4403 42.7388C40.5735 42.1124 39.6575 41.5569 38.7013 41.0778L37.5013 43.5268C39.9046 44.6973 42.003 46.4103 43.6308 48.5307C45.2586 50.6511 46.3714 53.1207 46.8813 55.7448C40.1653 59.5868 33.6463 61.0928 30.8113 59.7018L30.3183 59.4608C30.6383 56.5898 31.8733 47.5798 35.2823 40.9498C39.1233 33.4788 45.9443 31.3898 52.5413 29.3678C58.7203 27.4748 65.1083 25.5188 68.4093 19.0988L69.2203 17.5228L70.0043 17.9058C70.0523 20.0198 69.6483 27.0978 63.4723 39.1058L63.4683 39.1108ZM81.6423 16.8658C81.2622 17.6418 80.5951 18.2395 79.7821 18.5325C78.9692 18.8255 78.0741 18.7908 77.2863 18.4358L71.9783 15.8358L71.8083 15.7528L71.8833 15.6068C72.6263 14.1024 73.9256 12.9462 75.5061 12.3829C77.0866 11.8196 78.8243 11.8934 80.3513 12.5888C80.7066 12.762 81.0232 13.005 81.2825 13.3032C81.5418 13.6015 81.7383 13.9489 81.8603 14.3248C81.9968 14.7412 82.0478 15.1809 82.0104 15.6175C81.9729 16.0541 81.8477 16.4787 81.6423 16.8658Z" fill="#3B3735"/>
<path d="M26.8939 72.262L32.9529 68.222V72.491C32.9529 75.0214 31.9477 77.4482 30.1585 79.2375C28.3692 81.0268 25.9424 82.032 23.4119 82.032C20.8815 82.032 18.4547 81.0268 16.6654 79.2375C14.8762 77.4482 13.8709 75.0214 13.8709 72.491V41.061C16.8692 40.7267 19.639 39.2989 21.6506 37.0506C23.6622 34.8023 24.7743 31.8913 24.7743 28.8745C24.7743 25.8576 23.6622 22.9467 21.6506 20.6984C19.639 18.4501 16.8692 17.0222 13.8709 16.688V0.250977H11.1399V16.688C8.14168 17.0222 5.37188 18.4501 3.3603 20.6984C1.34872 22.9467 0.236572 25.8576 0.236572 28.8745C0.236572 31.8913 1.34872 34.8023 3.3603 37.0506C5.37188 39.2989 8.14168 40.7267 11.1399 41.061V72.491C11.1399 75.7444 12.4324 78.8645 14.7329 81.1651C17.0334 83.4656 20.1535 84.758 23.4069 84.758C26.6604 84.758 29.7805 83.4656 32.081 81.1651C34.3815 78.8645 35.6739 75.7444 35.6739 72.491V63.13L25.3739 69.994L26.8939 72.262ZM12.5069 19.333C14.4512 19.3356 16.3483 19.9317 17.9447 21.0416C19.541 22.1515 20.7604 23.7223 21.4399 25.544C18.6416 26.8396 15.5947 27.5107 12.5109 27.5107C9.42717 27.5107 6.38034 26.8396 3.58195 25.544C4.26122 23.723 5.48005 22.1526 7.07559 21.0428C8.67113 19.9329 10.5674 19.3364 12.5109 19.333H12.5069ZM2.96595 28.874C2.96595 28.679 2.98395 28.49 2.99495 28.297C6.00306 29.5767 9.23845 30.2362 12.5074 30.2362C15.7764 30.2362 19.0118 29.5767 22.0199 28.297C22.0309 28.489 22.0489 28.679 22.0489 28.874C22.0489 31.4044 21.0437 33.8312 19.2545 35.6205C17.4652 37.4098 15.0384 38.415 12.5079 38.415C9.97752 38.415 7.55073 37.4098 5.76144 35.6205C3.97216 33.8312 2.96595 31.4044 2.96595 28.874Z" fill="#3B3735"/>
<path d="M36.9944 51.5044C37.8228 51.5044 38.4944 51.0567 38.4944 50.5044C38.4944 49.9521 37.8228 49.5044 36.9944 49.5044C36.166 49.5044 35.4944 49.9521 35.4944 50.5044C35.4944 51.0567 36.166 51.5044 36.9944 51.5044Z" fill="#3B3735"/>
</g>
</g>
</g>
<defs>
<clipPath id="clip0_9_1185">
<rect width="84.51" height="84.51" fill="white" transform="translate(0.23999 0.25)"/>
</clipPath>
<clipPath id="clip1_9_1185">
<rect width="84.51" height="84.51" fill="white" transform="translate(0.23999 0.25)"/>
</clipPath>
<clipPath id="clip2_9_1185">
<rect width="84.509" height="84.507" fill="white" transform="translate(0.23999 0.250977)"/>
</clipPath>
</defs>
</svg>
