<svg width="56" height="55" viewBox="0 0 56 55" fill="none" xmlns="http://www.w3.org/2000/svg">
<g id="logo.svg" clip-path="url(#clip0_9_1042)">
<g id="Group">
<path id="Vector" d="M28 55C43.1878 55 55.5 42.6878 55.5 27.5C55.5 12.3122 43.1878 0 28 0C12.8122 0 0.5 12.3122 0.5 27.5C0.5 42.6878 12.8122 55 28 55Z" fill="#E76F51"/>
<path id="Vector_2" d="M38.946 18.1908C38.9061 18.6586 38.7948 19.1175 38.616 19.5515C38.4348 19.9864 38.169 20.3809 37.8339 20.712C37.4725 21.0658 37.0474 21.348 36.581 21.5436C36.0205 21.7748 35.426 21.9134 34.821 21.9539C34.1766 22.0121 33.5274 21.9903 32.8883 21.889C32.2621 21.7886 31.6387 21.6734 31.0183 21.5436C30.3979 21.4138 29.7827 21.295 29.1725 21.1872C28.5641 21.0778 27.9446 21.0435 27.3278 21.0849C26.8053 21.1288 26.2902 21.2375 25.7944 21.4083C25.3063 21.5723 24.8525 21.8247 24.4557 22.153C24.0568 22.4902 23.7363 22.9102 23.5163 23.3839C23.267 23.9365 23.1452 24.538 23.1599 25.1439C23.1521 25.607 23.2405 26.0666 23.4195 26.4936C23.5727 26.8564 23.7724 27.1977 24.0135 27.5089C24.1958 27.7493 24.4101 27.9636 24.6504 28.1458C24.8521 28.2925 24.9815 28.3574 25.0387 28.3405C24.0595 28.6349 23.0275 28.71 22.0159 28.5605C21.1945 28.4324 20.4207 28.0923 19.7708 27.5738C19.1681 27.0798 18.7063 26.4355 18.4321 25.706C18.141 24.9347 18.0374 24.1053 18.1296 23.286C18.2019 22.469 18.4407 21.6753 18.8314 20.954C19.2046 20.2729 19.7116 19.6743 20.3219 19.194C20.9667 18.6941 21.6937 18.3103 22.4702 18.0599C23.3357 17.7788 24.2378 17.6261 25.1476 17.6067C26.0204 17.5777 26.8936 17.6515 27.7491 17.8267C28.591 17.9998 29.4153 18.2015 30.2219 18.4317C31.0286 18.662 31.8096 18.882 32.5649 19.0917C33.2919 19.2953 34.0367 19.429 34.7891 19.491C35.5035 19.5498 36.2227 19.4877 36.9165 19.3073C37.6687 19.0932 38.3625 18.7115 38.946 18.1908ZM26.8108 24.7347C26.8394 24.6482 26.8933 24.4755 26.9725 24.2166C27.054 23.9455 27.1081 23.6669 27.1342 23.385C27.1634 23.0962 27.1452 22.8045 27.0803 22.5215C27.0541 22.3908 26.9988 22.2676 26.9184 22.1611C26.838 22.0547 26.7347 21.9677 26.6161 21.9066C26.9043 21.9213 27.077 21.9286 27.1342 21.9286H27.6952C28.5125 21.9257 29.3176 22.1261 30.0382 22.5116C30.5565 22.8061 30.9856 23.2352 31.2801 23.7535C31.5352 24.2204 31.6687 24.7439 31.6684 25.2759C31.6752 25.7615 31.6009 26.2449 31.4484 26.7059L29.0559 33.7822C29.0273 33.8688 28.9734 34.0415 28.8942 34.3003C28.8128 34.5715 28.7586 34.8501 28.7325 35.1319C28.7033 35.4208 28.7215 35.7125 28.7864 35.9954C28.8126 36.1262 28.868 36.2494 28.9483 36.3559C29.0287 36.4623 29.132 36.5493 29.2506 36.6103C28.9624 36.5957 28.7897 36.5883 28.7325 36.5883H28.1715C27.354 36.5902 26.5488 36.3888 25.8285 36.002C25.3108 35.7088 24.8817 35.2812 24.5866 34.7645C24.3315 34.2977 24.198 33.7742 24.1983 33.2421C24.1915 32.7566 24.2659 32.2732 24.4183 31.8121L26.8108 24.7347Z" fill="white"/>
</g>
</g>
<defs>
<clipPath id="clip0_9_1042">
<rect width="55" height="55" fill="white" transform="translate(0.5)"/>
</clipPath>
</defs>
</svg>
