<svg width="25" height="19" viewBox="0 0 25 19" fill="none" xmlns="http://www.w3.org/2000/svg">
<g clip-path="url(#clip0_9_1967)">
<path d="M21.2045 0.591064H3.0255C2.22333 0.591858 1.45425 0.910888 0.887026 1.47814C0.319806 2.04539 0.000793835 2.81452 0 3.61674V15.3036C0.00211451 16.1051 0.321678 16.873 0.888726 17.4393C1.45577 18.0057 2.2241 18.3242 3.0255 18.3253H21.2045C22.0066 18.3242 22.7755 18.0051 23.3427 17.4379C23.9098 16.8707 24.2289 16.1018 24.23 15.2996V3.61674C24.2292 2.81452 23.9102 2.04539 23.343 1.47814C22.7758 0.910888 22.0067 0.591858 21.2045 0.591064ZM3.0255 1.44769H21.2045C21.5693 1.44801 21.9281 1.54044 22.2477 1.7164C22.5673 1.89235 22.8372 2.14615 23.0326 2.45425L13.7092 11.2604C13.2748 11.6604 12.706 11.8824 12.1155 11.8824C11.525 11.8824 10.9562 11.6604 10.5218 11.2604L1.19941 2.45525C1.39453 2.14731 1.66416 1.89355 1.98334 1.71744C2.30252 1.54133 2.66096 1.44855 3.0255 1.44769ZM0.877565 15.5885C0.864422 15.4941 0.857411 15.3989 0.856576 15.3036V3.61674C0.857285 3.52142 0.864297 3.42626 0.877565 3.33186L7.36535 9.46018L0.877565 15.5885ZM21.2045 17.4727H3.0255C2.66104 17.472 2.30263 17.3794 1.98343 17.2035C1.66424 17.0275 1.39458 16.7739 1.19941 16.4661L7.99604 10.0499L9.93908 11.8841C10.5335 12.4323 11.3124 12.7367 12.121 12.7367C12.9296 12.7367 13.7085 12.4323 14.3029 11.8841L16.245 10.0499L23.0416 16.4651C22.8456 16.7748 22.5743 17.0296 22.253 17.2058C21.9317 17.382 21.5709 17.4739 21.2045 17.4727ZM23.3724 3.61674V15.3036C23.3716 15.3989 23.3646 15.4941 23.3514 15.5885L16.8636 9.46018L23.3524 3.33186C23.3651 3.4263 23.3718 3.52145 23.3724 3.61674Z" fill="#8D8D8D"/>
</g>
<defs>
<clipPath id="clip0_9_1967">
<rect width="24.23" height="17.74" fill="white" transform="translate(0 0.59021)"/>
</clipPath>
</defs>
</svg>
