<svg width="61" height="79" viewBox="0 0 61 79" fill="none" xmlns="http://www.w3.org/2000/svg">
<g clip-path="url(#clip0_9_1142)">
<g clip-path="url(#clip1_9_1142)">
<g clip-path="url(#clip2_9_1142)">
<path d="M59.0611 72.06H7.12244V1.94287L59.0611 2.12886V72.06Z" fill="#E76F51"/>
<path d="M55.1654 72.0599H7.12244V5.8374H42.1815L55.1664 18.8223L55.1654 72.0599Z" fill="#FF8A6C"/>
<path d="M53.8676 77.0689H1.92896V7.13672H40.8827L53.8676 20.1216V77.0689Z" fill="#FFD2C6"/>
<path d="M40.8826 35.7022H13.6149V30.5086L17.5145 29.2087L20.1143 24.0151H33.0992L35.699 29.2087L40.8926 30.5086L40.8826 35.7022Z" fill="#FF8A6C"/>
<path d="M35.6891 29.2097H17.5106L20.1104 24.0161H33.0953L35.6891 29.2097Z" fill="#FF8A6C"/>
<path d="M19.9957 39.0771C21.9287 39.0771 23.4957 37.734 23.4957 36.0771C23.4957 34.4203 21.9287 33.0771 19.9957 33.0771C18.0627 33.0771 16.4957 34.4203 16.4957 36.0771C16.4957 37.734 18.0627 39.0771 19.9957 39.0771Z" fill="#EAEAE8"/>
<path d="M33.9944 39.0771C35.3751 39.0771 36.4944 37.734 36.4944 36.0771C36.4944 34.4203 35.3751 33.0771 33.9944 33.0771C32.6137 33.0771 31.4944 34.4203 31.4944 36.0771C31.4944 37.734 32.6137 39.0771 33.9944 39.0771Z" fill="#EAEAE8"/>
<path d="M20.1106 38.3001C19.5964 38.3001 19.0937 38.1476 18.6661 37.8619C18.2386 37.5762 17.9053 37.1702 17.7085 36.6951C17.5117 36.22 17.4603 35.6972 17.5606 35.1929C17.6609 34.6885 17.9085 34.2252 18.2721 33.8616C18.6358 33.498 19.099 33.2504 19.6034 33.1501C20.1077 33.0497 20.6305 33.1012 21.1056 33.298C21.5807 33.4948 21.9868 33.8281 22.2724 34.2556C22.5581 34.6832 22.7106 35.1859 22.7106 35.7001C22.7106 36.3897 22.4367 37.051 21.9491 37.5386C21.4615 38.0262 20.8002 38.3001 20.1106 38.3001ZM20.1106 34.4001C19.8535 34.4001 19.6022 34.4763 19.3884 34.6192C19.1746 34.762 19.008 34.9651 18.9096 35.2026C18.8112 35.4402 18.7854 35.7015 18.8356 35.9537C18.8858 36.2059 19.0096 36.4375 19.1914 36.6193C19.3732 36.8012 19.6048 36.925 19.857 36.9751C20.1092 37.0253 20.3706 36.9995 20.6081 36.9011C20.8457 36.8027 21.0487 36.6361 21.1915 36.4223C21.3344 36.2086 21.4106 35.9572 21.4106 35.7001C21.409 35.3564 21.2714 35.0272 21.0277 34.7847C20.7841 34.5422 20.4544 34.4061 20.1106 34.4061V34.4001Z" fill="#CBCBCB"/>
<path d="M34.3935 38.3001C33.8792 38.3001 33.3765 38.1476 32.949 37.8619C32.5214 37.5762 32.1882 37.1702 31.9914 36.6951C31.7946 36.22 31.7431 35.6972 31.8434 35.1929C31.9437 34.6885 32.1914 34.2252 32.555 33.8616C32.9186 33.498 33.3819 33.2504 33.8862 33.1501C34.3906 33.0497 34.9133 33.1012 35.3884 33.298C35.8635 33.4948 36.2696 33.8281 36.5553 34.2556C36.841 34.6832 36.9935 35.1859 36.9935 35.7001C36.9935 36.3897 36.7195 37.051 36.2319 37.5386C35.7443 38.0262 35.083 38.3001 34.3935 38.3001ZM34.3935 34.4001C34.1364 34.4001 33.885 34.4763 33.6712 34.6192C33.4574 34.762 33.2908 34.9651 33.1924 35.2026C33.094 35.4402 33.0683 35.7015 33.1184 35.9537C33.1686 36.2059 33.2924 36.4375 33.4742 36.6193C33.656 36.8012 33.8877 36.925 34.1398 36.9751C34.392 37.0253 34.6534 36.9995 34.891 36.9011C35.1285 36.8027 35.3315 36.6361 35.4744 36.4223C35.6172 36.2086 35.6935 35.9572 35.6935 35.7001C35.6919 35.3564 35.5542 35.0272 35.3106 34.7847C35.067 34.5422 34.7372 34.4061 34.3935 34.4061V34.4001Z" fill="#CBCBCB"/>
<path d="M25.3009 24.0161H27.9009V30.5091H25.3009V24.0161Z" fill="#0BAFEA"/>
<path d="M53.8676 20.1216H40.8827V7.13672L53.8676 20.1216Z" fill="#FFD2C6"/>
<path d="M30.4945 46.0934H11.0191C10.6744 46.0934 10.3438 45.9565 10.1 45.7127C9.8562 45.4689 9.71924 45.1383 9.71924 44.7935C9.71924 44.4488 9.8562 44.1182 10.1 43.8744C10.3438 43.6306 10.6744 43.4937 11.0191 43.4937H30.4965C30.8413 43.4937 31.1719 43.6306 31.4157 43.8744C31.6594 44.1182 31.7964 44.4488 31.7964 44.7935C31.7964 45.1383 31.6594 45.4689 31.4157 45.7127C31.1719 45.9565 30.8413 46.0934 30.4965 46.0934H30.4945Z" fill="#CBCBCB"/>
<path d="M17.5101 52.5863H13.6101C13.2653 52.5863 12.9346 52.4494 12.6908 52.2056C12.447 51.9618 12.3101 51.6311 12.3101 51.2863C12.3101 50.9415 12.447 50.6109 12.6908 50.3671C12.9346 50.1233 13.2653 49.9863 13.6101 49.9863H17.5101C17.8548 49.9863 18.1855 50.1233 18.4293 50.3671C18.6731 50.6109 18.8101 50.9415 18.8101 51.2863C18.8101 51.6311 18.6731 51.9618 18.4293 52.2056C18.1855 52.4494 17.8548 52.5863 17.5101 52.5863Z" fill="#CBCBCB"/>
<path d="M24.0053 52.5863H22.7053C22.3605 52.5863 22.0298 52.4494 21.786 52.2056C21.5422 51.9618 21.4053 51.6311 21.4053 51.2863C21.4053 50.9415 21.5422 50.6109 21.786 50.3671C22.0298 50.1233 22.3605 49.9863 22.7053 49.9863H24.0053C24.3501 49.9863 24.6807 50.1233 24.9245 50.3671C25.1683 50.6109 25.3053 50.9415 25.3053 51.2863C25.3053 51.6311 25.1683 51.9618 24.9245 52.2056C24.6807 52.4494 24.3501 52.5863 24.0053 52.5863Z" fill="#CBCBCB"/>
<path d="M40.8826 52.5861H29.1976C28.8528 52.5861 28.5222 52.4492 28.2784 52.2054C28.0347 51.9616 27.8977 51.631 27.8977 51.2862C27.8977 50.9415 28.0347 50.6108 28.2784 50.3671C28.5222 50.1233 28.8528 49.9863 29.1976 49.9863H40.8836C41.2284 49.9863 41.559 50.1233 41.8028 50.3671C42.0466 50.6108 42.1835 50.9415 42.1835 51.2862C42.1835 51.631 42.0466 51.9616 41.8028 52.2054C41.559 52.4492 41.2284 52.5861 40.8836 52.5861H40.8826Z" fill="#CBCBCB"/>
<path d="M26.9947 72.0739C31.1365 72.0739 34.4941 68.7164 34.4941 64.5746C34.4941 60.4328 31.1365 57.0752 26.9947 57.0752C22.8529 57.0752 19.4954 60.4328 19.4954 64.5746C19.4954 68.7164 22.8529 72.0739 26.9947 72.0739Z" fill="#FFB63B"/>
<path d="M27.8978 66.8653C27.5532 66.8655 27.2227 66.7288 26.9788 66.4854L24.379 63.8856C24.1514 63.6389 24.028 63.3136 24.0347 62.9779C24.0414 62.6423 24.1777 62.3223 24.4151 62.0849C24.6525 61.8475 24.9726 61.7111 25.3083 61.7044C25.6439 61.6977 25.9692 61.8211 26.2159 62.0488L28.0157 63.8486L37.5029 56.7332C37.6385 56.6213 37.7954 56.5382 37.9641 56.4887C38.1328 56.4392 38.3097 56.4244 38.4843 56.4452C38.6588 56.466 38.8273 56.5221 38.9796 56.6099C39.1318 56.6977 39.2647 56.8155 39.3702 56.9561C39.4756 57.0968 39.5514 57.2574 39.5931 57.4282C39.6347 57.5989 39.6412 57.7764 39.6123 57.9498C39.5834 58.1232 39.5196 58.2889 39.4248 58.4369C39.33 58.5849 39.2062 58.7122 39.0608 58.811L28.6727 66.6014C28.4496 66.7705 28.1778 66.8631 27.8978 66.8653Z" fill="#02A437"/>
<path d="M44.7791 46.0937H35.6901C35.3453 46.0937 35.0147 45.9567 34.7709 45.7129C34.5271 45.4691 34.3901 45.1384 34.3901 44.7936C34.3901 44.4489 34.5271 44.1182 34.7709 43.8744C35.0147 43.6306 35.3453 43.4937 35.6901 43.4937H44.7802C45.1249 43.4937 45.4556 43.6306 45.6994 43.8744C45.9432 44.1182 46.0801 44.4489 46.0801 44.7936C46.0801 45.1384 45.9432 45.4691 45.6994 45.7129C45.4556 45.9567 45.1249 46.0937 44.7802 46.0937H44.7791Z" fill="#CBCBCB"/>
<path d="M46.0766 65.5707H42.1766C41.8318 65.5707 41.5012 65.4337 41.2574 65.1899C41.0136 64.9461 40.8766 64.6155 40.8766 64.2707C40.8766 63.9259 41.0136 63.5953 41.2574 63.3515C41.5012 63.1077 41.8318 62.9707 42.1766 62.9707H46.0766C46.4214 62.9707 46.7521 63.1077 46.9958 63.3515C47.2396 63.5953 47.3766 63.9259 47.3766 64.2707C47.3766 64.6155 47.2396 64.9461 46.9958 65.1899C46.7521 65.4337 46.4214 65.5707 46.0766 65.5707Z" fill="#CBCBCB"/>
<path d="M48.6737 70.7646H42.1827C41.8379 70.7646 41.5073 70.6276 41.2635 70.3838C41.0197 70.14 40.8827 69.8093 40.8827 69.4645C40.8827 69.1198 41.0197 68.7891 41.2635 68.5453C41.5073 68.3015 41.8379 68.1646 42.1827 68.1646H48.6757C49.0205 68.1646 49.3511 68.3015 49.5949 68.5453C49.8387 68.7891 49.9757 69.1198 49.9757 69.4645C49.9757 69.8093 49.8387 70.14 49.5949 70.3838C49.3511 70.6276 49.0205 70.7646 48.6757 70.7646H48.6737Z" fill="#CBCBCB"/>
<path d="M59.0661 0.830028L7.12946 0.644043C6.78471 0.644043 6.45408 0.780996 6.2103 1.02477C5.96653 1.26855 5.82957 1.59918 5.82957 1.94393V5.84361H1.9299C1.58515 5.84361 1.25451 5.98056 1.01073 6.22434C0.766956 6.46811 0.630005 6.79875 0.630005 7.1435V77.0686C0.630005 77.4134 0.766956 77.744 1.01073 77.9878C1.25451 78.2316 1.58515 78.3685 1.9299 78.3685H53.8685C54.0392 78.3685 54.2083 78.3349 54.366 78.2696C54.5237 78.2043 54.667 78.1085 54.7877 77.9878C54.9084 77.8671 55.0042 77.7238 55.0695 77.5661C55.1348 77.4084 55.1684 77.2393 55.1684 77.0686V73.358H59.0681C59.4129 73.358 59.7435 73.221 59.9873 72.9772C60.2311 72.7335 60.368 72.4028 60.368 72.0581V2.12792C60.3677 1.95721 60.3339 1.78823 60.2683 1.63062C60.2027 1.47301 60.1068 1.32986 59.9859 1.20934C59.865 1.08882 59.7215 0.993293 59.5637 0.92821C59.4059 0.863127 59.2368 0.829765 59.0661 0.830028ZM52.5667 75.7698H3.22979V8.43439H39.5867V20.1214C39.5867 20.4662 39.7237 20.7968 39.9675 21.0406C40.2113 21.2844 40.5419 21.4213 40.8866 21.4213H52.5727L52.5667 75.7698ZM42.1785 10.2752L50.7298 18.8265H42.1785V10.2752ZM57.7602 70.7702H55.1604V20.1214C55.1603 19.7772 55.0237 19.4471 54.7805 19.2035L41.8006 6.21858C41.557 5.97538 41.2268 5.83873 40.8826 5.83861H8.42035V3.24383L57.7622 3.41981L57.7602 70.7702Z" fill="#3B3735"/>
<path d="M13.616 37.0011H16.4367C16.7074 37.7584 17.2055 38.4134 17.8629 38.8766C18.5203 39.3398 19.3048 39.5884 20.1089 39.5884C20.9131 39.5884 21.6976 39.3398 22.355 38.8766C23.0124 38.4134 23.5105 37.7584 23.7811 37.0011H30.7205C30.9912 37.7584 31.4893 38.4134 32.1467 38.8766C32.8041 39.3398 33.5886 39.5884 34.3927 39.5884C35.1969 39.5884 35.9814 39.3398 36.6388 38.8766C37.2962 38.4134 37.7943 37.7584 38.0649 37.0011H40.8857C41.2304 37.0011 41.5611 36.8642 41.8048 36.6204C42.0486 36.3766 42.1856 36.046 42.1856 35.7012V30.5076C42.1853 30.2181 42.0884 29.9368 41.9102 29.7086C41.7319 29.4803 41.4826 29.3182 41.2017 29.2478L36.587 28.0939L34.2572 23.4343C34.1493 23.2187 33.9836 23.0374 33.7786 22.9106C33.5736 22.7839 33.3374 22.7166 33.0963 22.7163H20.1064C19.8654 22.7166 19.6292 22.7839 19.4241 22.9106C19.2191 23.0374 19.0534 23.2187 18.9455 23.4343L16.5887 28.1469L13.203 29.2748C12.9445 29.3611 12.7198 29.5265 12.5605 29.7476C12.4011 29.9686 12.3153 30.2342 12.3151 30.5067V35.7002C12.3149 35.8711 12.3485 36.0403 12.4138 36.1982C12.4792 36.3561 12.575 36.4996 12.6958 36.6204C12.8166 36.7412 12.9601 36.837 13.118 36.9024C13.2759 36.9677 13.4451 37.0012 13.616 37.0011ZM20.1084 37.0011C19.8513 37.0011 19.6 36.9249 19.3862 36.782C19.1725 36.6392 19.0059 36.4362 18.9075 36.1987C18.8091 35.9611 18.7833 35.6998 18.8335 35.4476C18.8837 35.1955 19.0075 34.9638 19.1893 34.7821C19.3711 34.6003 19.6027 34.4765 19.8548 34.4263C20.107 34.3762 20.3683 34.4019 20.6059 34.5003C20.8434 34.5987 21.0464 34.7653 21.1892 34.979C21.3321 35.1928 21.4083 35.4441 21.4083 35.7012C21.4083 35.8721 21.3746 36.0413 21.3092 36.1991C21.2437 36.357 21.1478 36.5004 21.0269 36.6211C20.906 36.7418 20.7624 36.8375 20.6045 36.9027C20.4465 36.968 20.2773 37.0014 20.1064 37.0011H20.1084ZM34.3912 37.0011C34.1341 37.0011 33.8828 36.9249 33.669 36.782C33.4553 36.6392 33.2887 36.4362 33.1903 36.1987C33.0919 35.9611 33.0662 35.6998 33.1163 35.4476C33.1665 35.1955 33.2903 34.9638 33.4721 34.7821C33.6539 34.6003 33.8855 34.4765 34.1376 34.4263C34.3898 34.3762 34.6511 34.4019 34.8887 34.5003C35.1262 34.5987 35.3292 34.7653 35.472 34.979C35.6149 35.1928 35.6911 35.4441 35.6911 35.7012C35.6911 35.872 35.6575 36.0411 35.5921 36.1989C35.5267 36.3567 35.4308 36.5 35.31 36.6207C35.1892 36.7415 35.0458 36.8372 34.888 36.9025C34.7301 36.9677 34.562 37.0012 34.3912 37.0011ZM33.5913 27.9119H27.9018V25.3121H32.2934L33.5913 27.9119ZM20.9134 25.3121H25.305V27.9119H19.6155L20.9134 25.3121ZM14.9139 31.4416L17.7216 30.5056H35.5301L39.5848 31.5196V34.4013H38.0629C37.7923 33.6441 37.2942 32.989 36.6368 32.5259C35.9794 32.0627 35.1949 31.8141 34.3907 31.8141C33.5866 31.8141 32.8021 32.0627 32.1447 32.5259C31.4873 32.989 30.9892 33.6441 30.7185 34.4013H23.7791C23.5085 33.6441 23.0104 32.989 22.353 32.5259C21.6956 32.0627 20.9111 31.8141 20.1069 31.8141C19.3028 31.8141 18.5183 32.0627 17.8609 32.5259C17.2035 32.989 16.7054 33.6441 16.4347 34.4013H14.9159L14.9139 31.4416Z" fill="#3B3735"/>
<path d="M31.7934 44.7935C31.7934 44.6228 31.7598 44.4538 31.6944 44.2961C31.6291 44.1384 31.5334 43.9951 31.4127 43.8744C31.292 43.7537 31.1486 43.6579 30.9909 43.5926C30.8332 43.5273 30.6642 43.4937 30.4935 43.4937H11.0191C10.6744 43.4937 10.3438 43.6306 10.1 43.8744C9.8562 44.1182 9.71924 44.4488 9.71924 44.7935C9.71924 45.1383 9.8562 45.4689 10.1 45.7127C10.3438 45.9565 10.6744 46.0934 11.0191 46.0934H30.4965C30.8407 46.0926 31.1706 45.9553 31.4137 45.7116C31.6569 45.4679 31.7934 45.1378 31.7934 44.7935Z" fill="#3B3735"/>
<path d="M17.5101 49.9858H13.6101C13.2653 49.9858 12.9346 50.1228 12.6908 50.3666C12.447 50.6104 12.3101 50.941 12.3101 51.2858C12.3101 51.6306 12.447 51.9613 12.6908 52.2051C12.9346 52.4489 13.2653 52.5858 13.6101 52.5858H17.5101C17.8548 52.5858 18.1855 52.4489 18.4293 52.2051C18.6731 51.9613 18.8101 51.6306 18.8101 51.2858C18.8101 50.941 18.6731 50.6104 18.4293 50.3666C18.1855 50.1228 17.8548 49.9858 17.5101 49.9858Z" fill="#3B3735"/>
<path d="M22.7053 49.9858C22.3605 49.9858 22.0298 50.1228 21.786 50.3666C21.5422 50.6104 21.4053 50.941 21.4053 51.2858C21.4053 51.6306 21.5422 51.9613 21.786 52.2051C22.0298 52.4489 22.3605 52.5858 22.7053 52.5858H24.0053C24.3501 52.5858 24.6807 52.4489 24.9245 52.2051C25.1683 51.9613 25.3053 51.6306 25.3053 51.2858C25.3053 50.941 25.1683 50.6104 24.9245 50.3666C24.6807 50.1228 24.3501 49.9858 24.0053 49.9858H22.7053Z" fill="#3B3735"/>
<path d="M42.1805 51.2857C42.1805 50.941 42.0435 50.6104 41.7998 50.3666C41.556 50.1228 41.2254 49.9858 40.8806 49.9858H29.1976C28.8528 49.9858 28.5222 50.1228 28.2784 50.3666C28.0347 50.6104 27.8977 50.941 27.8977 51.2857C27.8977 51.6305 28.0347 51.9611 28.2784 52.2049C28.5222 52.4487 28.8528 52.5856 29.1976 52.5856H40.8836C41.2278 52.5848 41.5577 52.4475 41.8008 52.2038C42.044 51.9601 42.1805 51.63 42.1805 51.2857Z" fill="#3B3735"/>
<path d="M37.506 56.7383L35.0062 58.6141C33.5763 56.8243 31.5219 55.6422 29.2559 55.3055C26.9899 54.9688 24.6805 55.5025 22.792 56.7993C20.9035 58.096 19.576 60.0597 19.0765 62.2954C18.5769 64.5311 18.9423 66.8731 20.0992 68.8504C21.2561 70.8276 23.1187 72.2935 25.3125 72.9534C27.5063 73.6132 29.8685 73.418 31.9242 72.407C33.9799 71.396 35.5766 69.6442 36.3932 67.5039C37.2099 65.3635 37.1859 62.9933 36.3261 60.87L39.0658 58.8161C39.3237 58.6034 39.4897 58.2995 39.5294 57.9675C39.569 57.6356 39.4792 57.3011 39.2787 57.0336C39.0781 56.7661 38.7822 56.5862 38.4525 56.5312C38.1227 56.4762 37.7845 56.5504 37.508 56.7383H37.506ZM34.3892 64.2697C34.3906 65.802 33.8506 67.2855 32.8645 68.4584C31.8783 69.6312 30.5095 70.4179 28.9997 70.6796C27.4899 70.9412 25.9362 70.6611 24.6129 69.8885C23.2896 69.1159 22.2818 67.9006 21.7674 66.4572C21.2531 65.0138 21.2652 63.4351 21.8018 61.9998C22.3383 60.5645 23.3648 59.3649 24.6998 58.6128C26.0349 57.8607 27.5927 57.6045 29.0983 57.8895C30.6039 58.1744 31.9604 58.9821 32.9284 60.17L28.0188 63.8517L26.2189 62.0519C25.9722 61.8242 25.647 61.7008 25.3113 61.7075C24.9756 61.7142 24.6556 61.8506 24.4182 62.088C24.1808 62.3254 24.0444 62.6454 24.0377 62.9811C24.031 63.3167 24.1544 63.642 24.3821 63.8887L26.9819 66.4885C27.2031 66.71 27.4969 66.8442 27.8092 66.8664C28.1215 66.8886 28.4313 66.7974 28.6817 66.6095L34.1493 62.5098C34.3118 63.0837 34.3942 63.6772 34.3942 64.2737L34.3892 64.2697Z" fill="#3B3735"/>
<path d="M34.3901 44.7936C34.3901 45.1384 34.5271 45.4691 34.7709 45.7129C35.0147 45.9567 35.3453 46.0937 35.6901 46.0937H44.7802C45.1249 46.0937 45.4556 45.9567 45.6994 45.7129C45.9432 45.4691 46.0801 45.1384 46.0801 44.7936C46.0801 44.4489 45.9432 44.1182 45.6994 43.8744C45.4556 43.6306 45.1249 43.4937 44.7802 43.4937H35.6901C35.5194 43.4937 35.3504 43.5273 35.1927 43.5926C35.0349 43.658 34.8916 43.7537 34.7709 43.8744C34.6502 43.9951 34.5544 44.1384 34.4891 44.2962C34.4238 44.4539 34.3901 44.6229 34.3901 44.7936Z" fill="#3B3735"/>
<path d="M42.1827 62.9707C41.8379 62.9707 41.5073 63.1077 41.2635 63.3515C41.0197 63.5953 40.8827 63.9259 40.8827 64.2707C40.8827 64.6155 41.0197 64.9461 41.2635 65.1899C41.5073 65.4337 41.8379 65.5707 42.1827 65.5707H46.0827C46.4275 65.5707 46.7581 65.4337 47.0019 65.1899C47.2457 64.9461 47.3827 64.6155 47.3827 64.2707C47.3827 63.9259 47.2457 63.5953 47.0019 63.3515C46.7581 63.1077 46.4275 62.9707 46.0827 62.9707H42.1827Z" fill="#3B3735"/>
<path d="M48.6737 68.1646H42.1827C41.8379 68.1646 41.5073 68.3015 41.2635 68.5453C41.0197 68.7891 40.8827 69.1198 40.8827 69.4645C40.8827 69.8093 41.0197 70.14 41.2635 70.3838C41.5073 70.6276 41.8379 70.7646 42.1827 70.7646H48.6757C49.0205 70.7646 49.3511 70.6276 49.5949 70.3838C49.8387 70.14 49.9757 69.8093 49.9757 69.4645C49.9757 69.1198 49.8387 68.7891 49.5949 68.5453C49.3511 68.3015 49.0205 68.1646 48.6757 68.1646H48.6737Z" fill="#3B3735"/>
</g>
</g>
</g>
<defs>
<clipPath id="clip0_9_1142">
<rect width="59.73" height="77.73" fill="white" transform="translate(0.630005 0.640137)"/>
</clipPath>
<clipPath id="clip1_9_1142">
<rect width="59.73" height="77.73" fill="white" transform="translate(0.630005 0.640137)"/>
</clipPath>
<clipPath id="clip2_9_1142">
<rect width="59.73" height="77.7225" fill="white" transform="translate(0.630005 0.644043)"/>
</clipPath>
</defs>
</svg>
