<svg width="25" height="25" viewBox="0 0 25 25" fill="none" xmlns="http://www.w3.org/2000/svg">
<g clip-path="url(#clip0_9_1279)">
<path d="M20.7186 16.2264L20.7391 16.2469L12.3856 24.6004L4.53661 16.7515C3.48191 15.6328 2.90459 14.1472 2.92715 12.6099C2.94971 11.0726 3.57037 9.6046 4.65744 8.51736C5.6598 7.51519 6.98902 6.90672 8.40264 6.80295C9.81626 6.69918 11.2201 7.10702 12.358 7.95208C13.4862 7.00781 14.9261 6.51843 16.396 6.5797C17.8659 6.64097 19.26 7.24847 20.3057 8.28335C21.3514 9.31822 21.9733 10.706 22.0498 12.1752C22.1263 13.6444 21.6511 15.0886 20.7186 16.2264Z" fill="#E76F51" stroke="#E76F51" stroke-width="1.49964"/>
</g>
<defs>
<clipPath id="clip0_9_1279">
<rect width="24.02" height="24.02" fill="white" transform="translate(0.47998 0.580078)"/>
</clipPath>
</defs>
</svg>
