<svg width="83" height="73" viewBox="0 0 83 73" fill="none" xmlns="http://www.w3.org/2000/svg">
<g clip-path="url(#clip0_9_1104)">
<g clip-path="url(#clip1_9_1104)">
<g clip-path="url(#clip2_9_1104)">
<path d="M64.2092 17.3284C63.5714 17.9661 62.8143 18.472 61.9811 18.8171C61.1479 19.1622 60.2548 19.3399 59.3529 19.3399C58.4511 19.3399 57.558 19.1622 56.7248 18.8171C55.8916 18.472 55.1345 17.9661 54.4967 17.3284C53.859 16.6906 53.3531 15.9335 53.008 15.1003C52.6629 14.2671 52.4852 13.374 52.4852 12.4722C52.4852 11.5703 52.6629 10.6772 53.008 9.844C53.3531 9.01077 53.859 8.25368 54.4967 7.61596L48.3671 1.48633L12.6603 37.1922H59.3574L71.7177 24.8319L64.2092 17.3284Z" fill="#E76F51"/>
<path d="M12.6603 37.1918H59.3574L71.7137 24.8325L20.9008 28.9523L12.6603 37.1918Z" fill="#FF8A6C"/>
<path d="M22.2737 35.818L42.8724 15.2192L57.9795 30.3263L52.4859 35.82L22.2737 35.818Z" fill="#E76F51"/>
<path d="M26.3934 35.8179L42.7814 19.3389L53.8598 30.4172L48.5491 35.8169L26.3934 35.8179Z" fill="#FFB63B"/>
<path d="M74.4596 53.6708C74.4596 51.8496 75.183 50.1031 76.4707 48.8154C77.7585 47.5276 79.505 46.8042 81.3261 46.8042V35.8188H1.67297V46.8052C3.47962 46.827 5.20487 47.56 6.47473 48.8452C7.74458 50.1305 8.4567 51.8645 8.4567 53.6713C8.4567 55.478 7.74458 57.212 6.47473 58.4973C5.20487 59.7826 3.47962 60.5155 1.67297 60.5373V71.5237H81.3261V60.5373C79.505 60.5373 77.7585 59.8139 76.4707 58.5262C75.183 57.2384 74.4596 55.4919 74.4596 53.6708Z" fill="#E76F51"/>
<path d="M1.67297 71.5247H81.3261V60.5373C79.505 60.5373 77.7585 59.8139 76.4707 58.5262C75.183 57.2384 74.4596 55.4919 74.4596 53.6708C74.4596 51.8496 75.183 50.1031 76.4707 48.8154C77.7585 47.5276 79.505 46.8042 81.3261 46.8042V35.8188L1.67297 71.5247Z" fill="#FF8A6C"/>
<path d="M66.22 39.9385H68.967V45.4325H66.22V39.9385Z" fill="white"/>
<path d="M66.22 48.1792H68.967V53.6732H66.22V48.1792Z" fill="white"/>
<path d="M66.22 56.4185H68.967V61.9124H66.22V56.4185Z" fill="white"/>
<path d="M66.22 64.6592H68.967V70.1532H66.22V64.6592Z" fill="white"/>
<path d="M14.0332 35.8188H16.7802V41.3129H14.0332V35.8188Z" fill="white"/>
<path d="M14.0332 44.0586H16.7802V49.5526H14.0332V44.0586Z" fill="white"/>
<path d="M14.0332 52.2988H16.7802V57.7928H14.0332V52.2988Z" fill="white"/>
<path d="M14.0332 60.5386H16.7802V66.0326H14.0332V60.5386Z" fill="white"/>
<path d="M14.0332 68.7788H16.7802V71.5258H14.0332V68.7788Z" fill="white"/>
<path d="M60.7273 61.9113V45.4313C59.6347 45.4313 58.5868 44.9972 57.8142 44.2246C57.0416 43.452 56.6076 42.4041 56.6076 41.3115H26.3934C26.3934 42.4041 25.9594 43.452 25.1868 44.2246C24.4142 44.9972 23.3663 45.4313 22.2737 45.4313V61.9113C23.3663 61.9113 24.4142 62.3453 25.1868 63.1179C25.9594 63.8905 26.3934 64.9384 26.3934 66.031H56.6066C56.6066 65.4899 56.7132 64.9542 56.9203 64.4543C57.1274 63.9544 57.4309 63.5001 57.8136 63.1176C58.1963 62.735 58.6505 62.4316 59.1505 62.2246C59.6504 62.0176 60.1862 61.9112 60.7273 61.9113Z" fill="#E76F51"/>
<path d="M57.9795 60.0816V47.2594C57.0877 47.3008 56.2156 46.9874 55.5541 46.3878C54.8925 45.7883 54.4951 44.9512 54.4487 44.0596H28.5503C28.504 44.9512 28.1066 45.7883 27.445 46.3878C26.7834 46.9874 25.9114 47.3008 25.0195 47.2594V60.0776C25.9114 60.0362 26.7834 60.3496 27.445 60.9491C28.1066 61.5487 28.504 62.3858 28.5503 63.2774H54.4487C54.4961 62.3865 54.8939 61.5504 55.5554 60.9517C56.2169 60.353 57.0883 60.0402 57.9795 60.0816Z" fill="#FFB63B"/>
<path d="M81.3261 48.1783C81.689 48.1772 82.0368 48.0325 82.2933 47.7758C82.5498 47.5191 82.6943 47.1712 82.6951 46.8083V35.818C82.6951 35.4539 82.5504 35.1047 82.2929 34.8472C82.0355 34.5897 81.6863 34.4451 81.3221 34.4451H64.0462L72.6887 25.8026C72.8162 25.6751 72.9174 25.5238 72.9864 25.3572C73.0554 25.1906 73.0909 25.012 73.0909 24.8317C73.0909 24.6513 73.0554 24.4728 72.9864 24.3062C72.9174 24.1396 72.8162 23.9882 72.6887 23.8607L65.1831 16.3612C65.0556 16.2337 64.9043 16.1325 64.7377 16.0635C64.5711 15.9944 64.3925 15.9589 64.2122 15.9589C64.0318 15.9589 63.8533 15.9944 63.6867 16.0635C63.5201 16.1325 63.3687 16.2337 63.2412 16.3612C62.2108 17.3914 60.8133 17.97 59.3563 17.9698C57.8992 17.9696 56.5019 17.3906 55.4717 16.3602C54.4415 15.3297 53.8629 13.9323 53.8631 12.4752C53.8633 11.0181 54.4423 9.62083 55.4727 8.59066C55.6002 8.46316 55.7014 8.3118 55.7704 8.1452C55.8394 7.97861 55.875 7.80004 55.875 7.61971C55.875 7.43939 55.8394 7.26083 55.7704 7.09423C55.7014 6.92763 55.6002 6.77627 55.4727 6.64877L49.3421 0.511147C49.2146 0.383617 49.0632 0.282452 48.8966 0.213432C48.73 0.144411 48.5515 0.108887 48.3711 0.108887C48.1908 0.108887 48.0122 0.144411 47.8456 0.213432C47.6791 0.282452 47.5277 0.383617 47.4002 0.511147L13.4693 34.4451H1.67297C1.30885 34.4451 0.959639 34.5897 0.702167 34.8472C0.444695 35.1047 0.300049 35.4539 0.300049 35.818V46.8083C0.300844 47.1719 0.44584 47.5204 0.703226 47.7772C0.960612 48.034 1.30936 48.1783 1.67297 48.1783C3.11701 48.1977 4.4953 48.7851 5.50958 49.8131C6.52385 50.8412 7.09252 52.2272 7.09252 53.6714C7.09252 55.1156 6.52385 56.5017 5.50958 57.5297C4.4953 58.5578 3.11701 59.1451 1.67297 59.1646C1.49259 59.1646 1.31398 59.2001 1.14734 59.2692C0.980707 59.3382 0.829314 59.4395 0.701813 59.5671C0.574313 59.6947 0.473206 59.8461 0.404269 60.0128C0.335332 60.1795 0.299918 60.3581 0.300049 60.5385V71.5248C0.300049 71.889 0.444695 72.2382 0.702167 72.4956C0.959639 72.7531 1.30885 72.8978 1.67297 72.8978H81.3261C81.6896 72.8967 82.0377 72.7516 82.2943 72.4942C82.551 72.2369 82.6951 71.8883 82.6951 71.5248V60.5385C82.6951 60.1744 82.5504 59.8252 82.2929 59.5677C82.0355 59.3102 81.6863 59.1656 81.3221 59.1656C80.5945 59.1754 79.8722 59.0406 79.1972 58.7689C78.5221 58.4973 77.9077 58.0942 77.3897 57.5831C76.8717 57.0721 76.4604 56.4632 76.1797 55.7919C75.8989 55.1205 75.7543 54.4001 75.7543 53.6724C75.7543 52.9447 75.8989 52.2243 76.1797 51.553C76.4604 50.8816 76.8717 50.2728 77.3897 49.7617C77.9077 49.2506 78.5221 48.8476 79.1972 48.5759C79.8722 48.3043 80.5945 48.1694 81.3221 48.1793L81.3261 48.1783ZM48.3661 3.42697L52.6349 7.69571C51.4977 9.28256 50.961 11.2216 51.1202 13.1673C51.2795 15.1131 52.1245 16.939 53.5045 18.3198C54.8846 19.7006 56.7101 20.5465 58.6558 20.7068C60.6014 20.8671 62.5407 20.3313 64.1282 19.195L69.7748 24.8367L60.1614 34.4501H55.8057L58.9545 31.3013C59.082 31.1738 59.1832 31.0224 59.2522 30.8558C59.3212 30.6892 59.3568 30.5107 59.3568 30.3303C59.3568 30.15 59.3212 29.9715 59.2522 29.8049C59.1832 29.6383 59.082 29.4869 58.9545 29.3594L43.8484 14.2473C43.7209 14.1198 43.5695 14.0186 43.403 13.9496C43.2364 13.8806 43.0578 13.8451 42.8775 13.8451C42.6971 13.8451 42.5186 13.8806 42.352 13.9496C42.1854 14.0186 42.034 14.1198 41.9065 14.2473L21.7078 34.4461H17.353L48.3661 3.42697ZM25.5925 34.4451L42.8735 17.1601L56.0427 30.3253L51.9229 34.4451H25.5925ZM79.9532 61.7974V70.1509H68.9669V64.6583H66.2201V70.1519H16.7801V68.778H14.0332V70.1509H3.04688V61.7974C4.96901 61.4751 6.71464 60.4818 7.97365 58.994C9.23266 57.5063 9.92353 55.6204 9.92353 53.6714C9.92353 51.7224 9.23266 49.8366 7.97365 48.3488C6.71464 46.8611 4.96901 45.8678 3.04688 45.5454V37.1919H14.0332V41.3087H16.7801V37.1889H79.9532V45.5424C78.0311 45.8648 76.2855 46.8581 75.0265 48.3458C73.7674 49.8336 73.0766 51.7194 73.0766 53.6684C73.0766 55.6174 73.7674 57.5033 75.0265 58.991C76.2855 60.4788 78.0311 61.4721 79.9532 61.7944V61.7974Z" fill="#3B3735"/>
<path d="M66.224 39.9399H68.971V45.4339H66.224V39.9399Z" fill="#3B3735"/>
<path d="M66.224 48.1792H68.971V53.6732H66.224V48.1792Z" fill="#3B3735"/>
<path d="M66.224 56.4189H68.971V61.9129H66.224V56.4189Z" fill="#3B3735"/>
<path d="M14.0372 44.0596H16.7842V49.5536H14.0372V44.0596Z" fill="#3B3735"/>
<path d="M14.0372 52.2988H16.7842V57.7928H14.0372V52.2988Z" fill="#3B3735"/>
<path d="M14.0372 60.5396H16.7842V66.0335H14.0372V60.5396Z" fill="#3B3735"/>
<path d="M60.7264 44.0587C59.9979 44.0587 59.2992 43.7693 58.7841 43.2542C58.2689 42.739 57.9795 42.0404 57.9795 41.3119C57.9793 40.9479 57.8345 40.599 57.5771 40.3417C57.3196 40.0845 56.9706 39.9399 56.6066 39.9399H26.3935C26.0293 39.9399 25.6801 40.0846 25.4226 40.342C25.1652 40.5995 25.0205 40.9487 25.0205 41.3128C25.0205 42.0413 24.7311 42.74 24.216 43.2552C23.7009 43.7703 23.0022 44.0597 22.2737 44.0597C22.0933 44.0596 21.9147 44.095 21.748 44.1639C21.5813 44.2328 21.4298 44.334 21.3023 44.4615C21.1747 44.589 21.0734 44.7404 21.0044 44.907C20.9353 45.0736 20.8998 45.2522 20.8998 45.4326V61.9126C20.9 62.2766 21.0448 62.6257 21.3022 62.8831C21.5596 63.1405 21.9087 63.2852 22.2727 63.2855C23.0012 63.2855 23.6999 63.5749 24.215 64.0901C24.7301 64.6052 25.0195 65.3038 25.0195 66.0324C25.0195 66.3965 25.1642 66.7457 25.4216 67.0031C25.6791 67.2606 26.0283 67.4053 26.3924 67.4053H56.6056C56.9697 67.4053 57.3189 67.2606 57.5764 67.0031C57.8339 66.7457 57.9785 66.3965 57.9785 66.0324C57.9785 65.3038 58.2679 64.6052 58.7831 64.0901C59.2982 63.5749 59.9969 63.2855 60.7254 63.2855C61.0895 63.2855 61.4387 63.1409 61.6962 62.8834C61.9536 62.6259 62.0983 62.2767 62.0983 61.9126V45.4326C62.0984 45.2523 62.063 45.0738 61.9942 44.9071C61.9253 44.7405 61.8243 44.5891 61.6969 44.4615C61.5695 44.3339 61.4182 44.2327 61.2517 44.1636C61.0852 44.0945 60.9067 44.0588 60.7264 44.0587ZM59.3534 60.7117C58.4047 60.9596 57.5392 61.456 56.8462 62.1497C56.1532 62.8435 55.6576 63.7094 55.4107 64.6584H27.5994C27.3516 63.7087 26.855 62.8422 26.1607 62.1485C25.4664 61.4547 24.5996 60.9587 23.6496 60.7117V46.6325C24.5996 46.3855 25.4664 45.8895 26.1607 45.1958C26.855 44.502 27.3516 43.6355 27.5994 42.6858H55.4137C55.6607 43.6347 56.1563 44.5007 56.8493 45.1944C57.5423 45.8881 58.4078 46.3845 59.3564 46.6325L59.3534 60.7117Z" fill="#3B3735"/>
</g>
</g>
</g>
<defs>
<clipPath id="clip0_9_1104">
<rect width="82.4" height="72.79" fill="white" transform="translate(0.300049 0.109863)"/>
</clipPath>
<clipPath id="clip1_9_1104">
<rect width="82.4" height="72.79" fill="white" transform="translate(0.300049 0.109863)"/>
</clipPath>
<clipPath id="clip2_9_1104">
<rect width="82.4" height="72.7856" fill="white" transform="translate(0.300049 0.112305)"/>
</clipPath>
</defs>
</svg>
